<?xml version="1.0" encoding="UTF-8" standalone="no"?>
<!-- Created with Inkscape (http://www.inkscape.org/) -->

<svg
   xmlns:dc="http://purl.org/dc/elements/1.1/"
   xmlns:cc="http://creativecommons.org/ns#"
   xmlns:rdf="http://www.w3.org/1999/02/22-rdf-syntax-ns#"
   xmlns:svg="http://www.w3.org/2000/svg"
   xmlns="http://www.w3.org/2000/svg"
   xmlns:sodipodi="http://sodipodi.sourceforge.net/DTD/sodipodi-0.dtd"
   xmlns:inkscape="http://www.inkscape.org/namespaces/inkscape"
   id="svg3075"
   version="1.1"
   inkscape:version="0.48.5 r10040"
   width="4930"
   height="869"
   sodipodi:docname="lw3.png">
  <metadata
     id="metadata3081">
    <rdf:RDF>
      <cc:Work
         rdf:about="">
        <dc:format>image/svg+xml</dc:format>
        <dc:type
           rdf:resource="http://purl.org/dc/dcmitype/StillImage" />
        <dc:title></dc:title>
      </cc:Work>
    </rdf:RDF>
  </metadata>
  <defs
     id="defs3079" />
  <sodipodi:namedview
     pagecolor="#ffffff"
     bordercolor="#666666"
     borderopacity="1"
     objecttolerance="10"
     gridtolerance="10"
     guidetolerance="10"
     inkscape:pageopacity="0"
     inkscape:pageshadow="2"
     inkscape:window-width="1366"
     inkscape:window-height="705"
     id="namedview3077"
     showgrid="false"
     inkscape:zoom="0.098679405"
     inkscape:cx="2162.6872"
     inkscape:cy="366.01627"
     inkscape:window-x="-8"
     inkscape:window-y="-8"
     inkscape:window-maximized="1"
     inkscape:current-layer="svg3075" />
  <path
     style="fill:#000000"
     d="m 1054.5313,837.30513 c 0,-0.16128 1.2079,-16.33665 2.6843,-35.94529 1.4764,-19.60864 2.6774,-36.68997 2.6689,-37.95855 -0.012,-1.93854 -1.0195,-2.83877 -6.3101,-5.64333 l -6.2948,-3.33684 -31.0468,21.88247 c -17.07577,12.03537 -31.75147,21.89195 -32.61267,21.90351 -1.0364,0.014 -1.5628,-0.65984 -1.5564,-1.99224 0.01,-1.1448 9.0722,-15.30605 21.01897,-32.82909 19.3504,-28.3823 20.9142,-30.96143 19.8033,-32.65941 -0.6634,-1.01396 -2.5061,-3.95748 -4.095,-6.54115 -1.8698,-3.04064 -3.4965,-4.69759 -4.6118,-4.69759 -0.9478,0 -16.91857,1.42453 -35.49077,3.16564 -18.5721,1.74109 -34.9722,3.04971 -36.4445,2.90803 -1.7258,-0.16607 -2.7841,-0.82288 -2.9785,-1.84843 -0.2382,-1.25709 2.3883,-2.88039 12.5196,-7.73776 7.0516,-3.38081 17.8541,-8.59207 24.0057,-11.58058 l 11.1848,-5.43364 -31.0064,-0.0266 -31.0064,-0.0266 -1.8368,6.03975 c -7.225,23.7581 -28.8708,38.04921 -55.5163,36.65334 -12.3265,-0.64574 -21.5009,-3.11767 -33.6875,-9.07663 -37.4903,-18.33183 -65.6384,-58.17068 -68.2977,-96.66359 l -0.554,-8.01827 -17.4481,-10.81082 c -9.5965,-5.94596 -24.0919,-14.83637 -32.212,-19.75648 l -14.7639,-8.94565 -7.4285,2.95965 c -35.2571,14.04704 -72.83232,11.31555 -100.82401,-7.32929 -15.41615,-10.26847 -26.89679,-25.53483 -33.16335,-44.09886 -1.37052,-4.06006 -2.92862,-7.37715 -3.46243,-7.3713 -0.53382,0.006 -3.18514,0.62435 -5.89185,1.37447 -24.09533,6.67766 -56.70699,7.70435 -79.63527,2.50711 -25.09617,-5.68864 -48.56052,-17.45559 -64.87143,-32.5318 l -3.57911,-3.3082 -9.39517,0.81873 c -10.16246,0.88558 -31.18337,0.32947 -43.11797,-1.14071 -29.50524,-3.63464 -60.84939,-14.32968 -84.76366,-28.9225 -44.97621,-27.4451 -76.85252,-73.14164 -87.24249,-125.06715 -2.07936,-10.39192 -2.20945,-12.77052 -2.21877,-40.56688 -0.0107,-32.11632 0.42384,-36.62691 5.36123,-55.64273 6.13589,-23.63181 18.55639,-51.19143 32.79044,-72.75791 39.56228,-59.94236 102.56179,-101.070758 174.71733,-114.061858 6.16093,-1.10917 14.0642,-1.31649 41.60719,-1.09128 33.36237,0.27282 34.21184,0.32472 45.1863,2.75816 62.73942,13.9121 110.81387,51.001458 136.98555,105.684138 11.20425,23.40991 16.83384,45.25315 19.1879,74.45039 l 0.59196,7.3421 5.05541,3.78133 c 7.9735,5.96406 20.6582,19.34986 26.6297,28.10166 16.428,24.0768 24.5613,50.55171 24.4527,79.59659 -0.024,6.39767 -0.5361,14.90145 -1.1382,18.89731 l -1.0947,7.26519 7.1832,0.57175 c 27.729,2.2071 52.7927,16.74993 67.6499,39.25293 19.6218,29.71955 19.0507,70.6308 -1.4712,105.39173 -2.7507,4.65934 -5.5997,9.13582 -6.3311,9.94773 -1.5619,1.73401 -1.0148,2.29253 21.7058,22.15827 l 14.1711,12.39046 4.5603,-2.57369 c 6.9623,-3.92926 17.0231,-6.1605 27.7781,-6.1605 14.4286,0 25.1141,2.78804 39.8451,10.39631 27.7151,14.3143 50.77,41.65706 60.848,72.16494 l 2.876,8.70614 29.076,0 c 15.9918,0 28.9083,-0.16132 28.7032,-0.35849 -0.205,-0.19718 -10.0364,-4.81273 -21.8475,-10.25678 -16.3327,-7.52821 -21.4747,-10.28117 -21.4747,-11.49732 0,-2.41986 4.3749,-2.4029 38.7277,0.15003 40.80377,3.03235 37.87667,3.14332 40.23487,-1.52537 1.0566,-2.09154 2.7163,-5.01076 3.6883,-6.48714 l 1.7674,-2.68434 -21.8418,-30.86985 c -12.01297,-16.97842 -21.74147,-31.4692 -21.61887,-32.20175 0.1225,-0.73253 0.8943,-1.46121 1.7151,-1.61927 0.8207,-0.15806 15.3115,9.11944 32.20167,20.61667 16.8902,11.49723 31.1692,21.18172 31.7312,21.52109 0.83,0.50126 8.0394,-3.12656 12.482,-6.28103 0.695,-0.49358 -9e-4,-11.2709 -2.414,-37.37945 -1.8648,-20.17725 -3.4116,-37.59188 -3.4374,-38.69917 -0.035,-1.52072 0.4593,-2.01325 2.0219,-2.01325 1.8379,0 3.9468,3.88854 18.9244,34.89636 l 16.8559,34.89635 6.9083,0 6.9084,0 9.023,-19.52104 c 4.9627,-10.73657 9.4222,-21.30614 9.9101,-23.48793 1.8543,-8.29227 18.8812,-114.18659 27.3262,-169.94827 4.0788,-26.93133 7.5446,-58.32174 8.9903,-81.42482 2.8976,-46.30518 4.3556,-55.61365 10.5555,-67.38804 6.1994,-11.7734 15.9045,-16.7804 32.6869,-16.86353 8.5832,-0.0421 9.6293,0.15095 14.9292,2.76003 12.3877,6.09845 20.2487,20.24991 21.673,39.01583 0.5803,7.64615 -0.088,11.23479 -16.3238,87.66201 -15.2289,71.68723 -21.4012,103.84546 -27.6501,144.05931 -2.753,17.71661 -7.5795,46.90875 -10.7255,64.87143 -3.1461,17.96267 -5.6591,32.70063 -5.5847,32.75101 0.074,0.0504 7.1314,-4.88208 15.6819,-10.96103 8.5505,-6.07895 16.3015,-11.05264 17.2245,-11.05264 1.0938,0 1.678,0.63704 1.678,1.82981 0,1.0064 -9.1205,15.19982 -20.268,31.54094 -11.1474,16.34112 -20.4432,30.36959 -20.6574,31.17437 -0.2142,0.80479 1.3171,4.32432 3.4029,7.82118 l 3.7923,6.35793 4.5619,-0.51098 c 14.8387,-1.66208 70.0643,-6.29124 70.9992,-5.95135 0.6152,0.22363 1.1185,1.11149 1.1185,1.97303 0,1.1741 -8.0487,5.46423 -32.1351,17.12875 -17.6744,8.55928 -32.0028,15.69576 -31.8409,15.85883 0.5418,0.5461 14.1983,-1.73447 26.0752,-4.35446 6.4677,-1.42672 22.171,-5.48923 34.8964,-9.02778 12.7253,-3.53855 26.5594,-7.37879 30.7425,-8.53387 16.6288,-4.59173 65.2037,-14.34314 94.8465,-19.04046 30.6508,-4.85705 75.4288,-6.86744 91.188,-4.09406 8.6732,1.52635 12.4715,3.72366 15.4666,8.94762 1.7959,3.13208 2.0591,4.8031 2.0464,12.98966 -0.013,8.76231 -0.2104,9.79754 -2.922,15.36848 -4.8948,10.0562 -17.262,19.65092 -30.6176,23.75387 -2.9319,0.90071 -14.2425,1.46773 -41.6072,2.08585 -47.2536,1.06738 -66.0932,3.05947 -100.81,10.65962 -11.0061,2.40944 -59.4709,14.61904 -62.4417,15.73075 -0.8112,0.30354 0.4455,1.29258 3.3554,2.64072 4.6332,2.1466 6.013,4.45611 3.287,5.50215 -0.7509,0.28814 -7.9028,0.0454 -15.8932,-0.5395 l -14.528,-1.06339 -16.9899,4.47211 c -9.3444,2.45966 -20.8947,5.33529 -25.6672,6.39029 l -8.6775,1.91818 7.4071,10.45082 c 28.8962,40.77052 33.9953,48.2318 34.0477,49.82108 0.041,1.23844 -0.5019,1.77402 -1.7628,1.73908 -1.002,-0.0277 -15.4974,-9.32422 -32.212,-20.65879 -16.7145,-11.33458 -30.8499,-20.87164 -31.4118,-21.1935 -0.829,-0.47483 -7.6782,2.98106 -12.5113,6.31287 -0.7334,0.50558 -0.077,10.63612 2.4219,37.37946 1.8854,20.17725 3.4454,37.41729 3.4667,38.3112 0.03,1.24304 -0.5241,1.5587 -2.3544,1.34217 -2.2033,-0.26067 -3.7049,-3.00031 -18.9328,-34.54228 l -16.5396,-34.25916 -7.0848,0.25758 -7.0848,0.25758 -15.8133,34.224 c -15.2025,32.90188 -15.9085,34.22405 -18.274,34.22527 -1.3533,7e-4 -2.4606,-0.13068 -2.4606,-0.29196 z m 4.4062,-4.42484 c 1.0583,-1.38107 1.0254,-1.51342 -0.2532,-1.02274 -0.8078,0.30998 -1.4687,1.19161 -1.4687,1.95917 0,0.76756 0.1139,1.22779 0.2531,1.02274 0.1394,-0.20505 0.8002,-1.08668 1.4688,-1.95917 z m 81.4925,0.69157 c 0,-0.73819 -0.39,-1.34217 -0.8667,-1.34217 -0.4767,0 -0.6349,0.60398 -0.3516,1.34217 0.2832,0.73819 0.6732,1.34217 0.8666,1.34217 0.1934,0 0.3517,-0.60398 0.3517,-1.34217 z m -42.1176,-68.89793 10.151,0 14.3397,29.75451 c 7.8869,16.36498 14.4255,29.65244 14.5301,29.52768 0.1048,-0.12475 -1.1323,-14.92046 -2.7491,-32.87936 -1.6167,-17.95889 -2.7448,-32.96764 -2.5068,-33.35277 0.2381,-0.38513 3.1207,-2.08781 6.406,-3.78372 3.2853,-1.69592 7.027,-3.75993 8.3148,-4.58668 l 2.3417,-1.50319 26.2912,17.87003 c 14.4603,9.82852 26.8893,18.22592 27.6202,18.66089 0.7309,0.43497 -0.1237,-1.20402 -1.8991,-3.64221 -13.6706,-18.77331 -33.8788,-48.12434 -33.8788,-49.20641 0,-0.72818 2.2832,-5.1702 5.0737,-9.87115 l 5.0737,-8.54717 5.4399,0.51655 c 8.8114,0.83667 53.9341,4.0681 56.6417,4.05634 1.5494,-0.007 -8.5429,-5.09703 -26.8056,-13.52004 l -29.2908,-13.50923 0.2105,-11.06665 0.2103,-11.06664 28.6046,-13.88879 c 16.1065,-7.82047 27.6239,-13.88879 26.3602,-13.88879 -1.2344,0 -15.6342,1.20795 -31.9998,2.68434 -16.3655,1.47638 -29.9286,2.68433 -30.14,2.68433 -0.2115,0 -1.0518,-1.30861 -1.8673,-2.90803 -0.8154,-1.59941 -3.2834,-5.60831 -5.4844,-8.90864 l -4.0018,-6.00062 18.0344,-26.53816 c 9.9189,-14.59599 17.9131,-26.65564 17.7647,-26.79924 -0.1484,-0.14358 -11.8517,7.9558 -26.0074,17.99863 -14.1555,10.04284 -26.4883,18.25971 -27.4059,18.25971 -0.9177,0 -3.9186,-1.35492 -6.6686,-3.01094 -2.7502,-1.65602 -6.2214,-3.51679 -7.7141,-4.13506 -3.3181,-1.3744 -3.2779,1.5939 -0.5022,-37.11235 1.1987,-16.71411 2.0767,-30.49202 1.9512,-30.61757 -0.1256,-0.12556 -6.4826,13.3483 -14.1268,29.9419 l -13.8985,30.17017 -10.0933,0 -10.0934,0 -14.3556,-29.75891 c -7.8956,-16.3674 -14.4624,-29.65207 -14.593,-29.52147 -0.235,0.23506 4.467,53.67953 5.42,61.60411 l 0.4947,4.11328 -8.2233,4.685 c -5.0061,2.8521 -8.9492,4.53531 -10.079,4.3024 -1.0206,-0.21043 -13.4411,-8.29682 -27.6011,-17.96975 -14.1601,-9.67294 -25.91857,-17.58717 -26.13017,-17.58717 -0.2116,0 7.8507,11.65503 17.91617,25.90006 10.0655,14.24503 18.2996,26.62653 18.298,27.51443 0,0.88791 -1.5983,4.01417 -3.5484,6.94725 -1.95,2.93307 -4.0108,6.45626 -4.5795,7.82931 -0.9881,2.38543 -1.2978,2.49418 -6.9654,2.44571 -3.262,-0.0279 -18.01057,-0.96851 -32.77437,-2.09026 -14.7639,-1.12175 -26.9301,-1.98526 -27.0361,-1.91892 -0.106,0.0663 9.1549,4.43069 20.5799,9.69855 l 20.7726,9.57794 32.73187,-0.003 32.7319,-0.003 1.1825,-2.20938 c 1.1027,-2.06051 0.6908,-3.03002 -6.1123,-14.38765 -4.0121,-6.69804 -7.2947,-12.54887 -7.2947,-13.00184 0,-1.87319 3.3964,-0.45591 15.2931,6.38168 l 12.5364,7.20526 6.4015,-2.57195 6.4016,-2.57195 2.7909,-11.12046 c 1.5349,-6.11625 3.077,-12.25388 3.427,-13.63918 0.4918,-1.94759 1.0854,-2.45484 2.6176,-2.23695 1.7566,0.24977 2.3877,1.82646 5.5545,13.87779 l 3.5729,13.596 6.1504,2.27073 6.1504,2.27072 12.9727,-7.59003 c 12.5906,-7.36654 15.4514,-8.59951 15.4514,-6.65941 0,0.51183 -3.3811,6.70085 -7.5135,13.75337 l -7.5136,12.82278 3.0961,6.15138 c 1.7027,3.38327 3.5739,6.39383 4.1581,6.69014 0.5841,0.29631 6.9799,2.06611 14.2127,3.93289 7.4322,1.91821 13.3496,3.91269 13.6082,4.58664 0.4993,1.30098 -1.2525,1.90453 -18.056,6.22088 l -10.0875,2.59122 -0.9604,3.56666 c -0.5282,1.96166 -1.7579,5.26337 -2.7328,7.33713 l -1.7723,3.77047 7.2279,12.13985 c 3.9754,6.67693 7.2279,12.543 7.2279,13.03573 0,1.88361 -2.9113,0.67767 -14.1989,-5.88139 l -11.663,-6.77724 -5.7636,2.75074 c -3.17,1.51291 -6.3614,2.75074 -7.092,2.75074 -2.1871,0 -2.9675,1.75397 -5.5741,12.5269 -2.8931,11.95703 -3.6086,13.63293 -5.6527,13.24093 -1.1162,-0.21407 -2.3339,-3.38702 -4.7103,-12.27383 l -3.2048,-11.98512 -4.6239,-1.18334 c -2.5431,-0.65083 -6.2001,-1.9875 -8.1267,-2.97037 l -3.5029,-1.78703 -11.4633,6.68983 c -11.529,6.72818 -13.7559,7.63178 -13.7303,5.57134 0.01,-0.61516 2.9901,-6.14024 6.6277,-12.27797 l 6.6139,-11.15949 -1.7247,-3.38065 -1.7246,-3.38066 -30.1806,-0.0131 -30.18057,-0.0131 -21.6754,10.47516 c -11.9215,5.76133 -21.5376,10.61303 -21.3691,10.78153 0.1685,0.16851 13.4145,-0.91554 29.4356,-2.40899 36.73557,-3.42443 35.01917,-3.4268 36.45937,0.0504 0.6301,1.52115 2.6922,5.1586 4.5825,8.0832 1.8903,2.92461 3.4329,6.00851 3.4279,6.85313 0,0.84462 -7.9941,13.21253 -17.7538,27.48425 -9.7597,14.27171 -17.65987,26.06383 -17.55587,26.20471 0.1039,0.14087 11.81757,-7.92991 26.03047,-17.93507 14.2129,-10.00517 26.3536,-18.50458 26.9795,-18.88759 0.6816,-0.41721 2.8457,0.35449 5.3981,1.92494 2.3431,1.44174 6.1595,3.46151 8.481,4.48839 5.1413,2.27426 4.966,-1.14088 1.9838,38.65358 -1.2303,16.41713 -2.2338,30.07895 -2.23,30.3596 0,0.28063 6.3626,-13.17986 14.1307,-29.91221 l 14.1238,-30.42246 10.151,0 z m -110.88947,28.58009 c 0,-0.21702 -0.4027,-0.39457 -0.8948,-0.39457 -0.4921,0 -0.8948,0.42641 -0.8948,0.94758 0,0.52118 0.4027,0.69874 0.8948,0.39458 0.4921,-0.30415 0.8948,-0.73057 0.8948,-0.94759 z m 224.58937,-0.84196 c -0.6127,-0.7382 -1.5443,-1.34217 -2.0702,-1.34217 -0.526,0 -0.1747,0.59117 0.7807,1.31371 2.2444,1.69767 2.6828,1.70735 1.2895,0.0285 z m -151.5718,-4.67895 c -0.2974,-0.29733 -0.5088,0.23116 -0.47,1.17439 0.043,1.04238 0.255,1.25439 0.5407,0.5406 0.2584,-0.64591 0.2266,-1.41767 -0.071,-1.71499 z m 34.5236,-21.43347 c -0.646,-0.25847 -1.4177,-0.22669 -1.7151,0.0706 -0.2973,0.29733 0.2313,0.50881 1.1744,0.46996 1.0425,-0.0429 1.2544,-0.25496 0.5407,-0.54059 z m 7.2141,0.0186 c -0.6151,-0.24822 -1.6218,-0.24822 -2.2369,0 -0.6152,0.24822 -0.1119,0.45132 1.1184,0.45132 1.2304,0 1.7337,-0.2031 1.1185,-0.45132 z m -39.9482,-2.74418 c -0.2973,-0.29733 -0.5087,0.23115 -0.4699,1.17439 0.043,1.04238 0.255,1.25439 0.5406,0.5406 0.2584,-0.64591 0.2267,-1.41767 -0.071,-1.71499 z m 35.3617,-21.95563 c -0.8837,-0.87711 -0.9865,-0.77434 -0.5009,0.5009 0.336,0.88245 0.8363,1.37905 1.1118,1.10356 0.2755,-0.2755 6e-4,-0.99749 -0.6109,-1.60446 z m -228.52027,-2.17101 c -0.8706,-0.22687 -2.0785,-0.21195 -2.6843,0.0332 -0.6058,0.24511 0.1065,0.43072 1.5829,0.41249 1.4763,-0.0183 1.972,-0.21878 1.1014,-0.44564 z m 15.8229,-3.83427 c 9.4829,-2.42529 15.154,-5.65683 21.9985,-12.53527 21.5282,-21.63494 19.7917,-60.94865 -4.3085,-97.54199 -6.1765,-9.37832 -21.1009,-24.88109 -30.369,-31.54593 -19.6765,-14.14972 -40.4815,-20.62937 -59.098,-18.40594 -41.9524,5.01052 -56.282,53.40277 -30.0765,101.57138 16.5923,30.49876 47.9471,54.66988 77.3235,59.60805 6.305,1.05985 18.0401,0.50956 24.53,-1.15028 z m -82.1287,-50.35081 c -5.41,-7.18716 -12.449,-21.50544 -15.0659,-30.64615 -1.7717,-6.18852 -2.0454,-9.15828 -2.0202,-21.92207 0.037,-18.58793 1.226,-23.17671 7.8115,-30.1399 8.5964,-9.08948 18.8091,-12.43849 35.5561,-11.65978 20.3515,0.94631 34.8108,7.40255 19.6139,8.7578 -3.1597,0.28178 -7.8545,1.21868 -10.433,2.08202 -9.7723,3.27203 -22.8349,13.8515 -29.4559,23.8565 -6.6697,10.07853 -6.5597,39.93837 0.2134,57.93274 2.6642,7.07823 2.6669,7.33121 0.078,7.33121 -1.5159,0 -3.2417,-1.53249 -6.2977,-5.59237 z m 3.912,-0.6396 c 0,-0.47482 -0.9059,-1.3387 -2.0132,-1.91976 -2.0025,-1.05079 -2.0041,-1.04616 -0.3087,0.8633 1.8936,2.13274 2.3219,2.32761 2.3219,1.05646 z m -6.4357,-16.58488 c -1.1584,-7.03753 -0.2767,-30.81029 1.3854,-37.34802 1.5846,-6.23333 5.5268,-11.777 14.3035,-20.11396 6.5679,-6.23883 18.9095,-13.53996 23.2862,-13.7758 4.9403,-0.2662 -6.2362,-1.58947 -13.8103,-1.63509 -13.4428,-0.081 -22.9208,3.65335 -29.8659,11.76714 -6.6908,7.81671 -8.1705,30.56062 -3.1022,47.68406 1.7785,6.00882 7.812,19.71795 8.4025,19.09202 0.1565,-0.16592 -0.1131,-2.71758 -0.5992,-5.67035 z m 14.0414,-52.34453 c 0.8907,-0.98426 1.4182,-1.78956 1.1721,-1.78956 -0.2461,0 -1.1762,0.8053 -2.0669,1.78956 -0.8908,0.98425 -1.4182,1.78955 -1.1722,1.78955 0.2461,0 1.1762,-0.8053 2.067,-1.78955 z m 4.9212,-4.92128 c 0.6127,-0.73819 0.9126,-1.34217 0.6665,-1.34217 -0.246,0 -0.9486,0.60398 -1.5612,1.34217 -0.6127,0.73819 -0.9126,1.34217 -0.6666,1.34217 0.2461,0 0.9487,-0.60398 1.5613,-1.34217 z m -21.922,-8.5004 c 0.8907,-0.98425 1.4182,-1.78955 1.1721,-1.78955 -0.2461,0 -1.1762,0.8053 -2.0669,1.78955 -0.8908,0.98426 -1.4182,1.78956 -1.1722,1.78956 0.2461,0 1.1762,-0.8053 2.067,-1.78956 z m 51.4497,-5.91179 c 0,-0.1934 -0.604,-0.35165 -1.3421,-0.35165 -0.7382,0 -1.3422,0.39001 -1.3422,0.8667 0,0.47667 0.604,0.63492 1.3422,0.35165 0.7381,-0.28328 1.3421,-0.67328 1.3421,-0.8667 z m 251.88267,130.28598 c 1.7576,-7.44574 2.59,-8.94778 4.9587,-8.94778 0.8857,0 4.8429,-1.65738 8.7937,-3.68307 l 7.1834,-3.68306 7.2821,4.20025 c 4.0051,2.31015 7.4164,4.06576 7.5808,3.90138 0.1644,-0.16438 -1.7307,-3.64867 -4.2113,-7.74286 l -4.5102,-7.44398 2.3275,-4.27637 c 1.2801,-2.35202 2.8823,-6.44883 3.5604,-9.10404 l 1.2328,-4.82766 8.6429,-2.32973 c 4.7536,-1.28135 8.8307,-2.51758 9.0603,-2.74718 0.2296,-0.22961 -2.6978,-1.14176 -6.5054,-2.027 -8.9178,-2.07336 -12.7388,-3.66402 -12.7388,-5.30302 0,-0.72243 -1.4093,-3.96996 -3.1318,-7.21673 -1.7224,-3.24678 -3.1273,-6.40075 -3.122,-7.00885 0.01,-0.60809 2.206,-4.85174 4.8904,-9.43033 l 4.8807,-8.32473 -5.1141,2.89501 c -2.8127,1.59225 -6.6763,3.86647 -8.5856,5.05381 -3.9149,2.43453 -4.9619,2.35981 -14.424,-1.0295 l -6.2635,-2.24354 -2.759,-10.5308 -2.7589,-10.53081 -2.4808,9.99958 c -1.3644,5.49976 -2.9415,10.36964 -3.5045,10.82195 -0.5631,0.4523 -2.433,1.11932 -4.1554,1.48227 -1.7225,0.36296 -4.6257,1.41608 -6.4515,2.34027 -1.8259,0.9242 -4.1308,1.68036 -5.1219,1.68036 -0.9913,0 -5.1344,-1.97494 -9.2072,-4.38876 -4.0727,-2.41382 -7.5193,-4.27923 -7.659,-4.14536 -0.1396,0.13385 1.8418,3.7499 4.4032,8.03563 l 4.657,7.79226 -1.6271,2.84026 c -3.7552,6.55492 3.3367,5.97198 -72.65357,5.97198 l -68.3289,0 0.6535,2.46064 c 0.3594,1.35335 0.6691,7.59434 0.6881,13.86886 l 0.035,11.40822 67.2466,2e-4 67.24667,2.1e-4 2.7697,4.90773 c 1.5234,2.69925 2.7698,5.48894 2.7698,6.19931 0,1.38586 -5.6757,11.5185 -7.9929,14.26944 -0.7713,0.91567 2.0202,-0.39218 6.2033,-2.90632 4.1831,-2.51414 8.2978,-4.57194 9.1439,-4.57288 0.8462,-9e-4 3.2271,0.87847 5.291,1.95425 2.0639,1.07578 6.2035,2.62262 9.199,3.43741 l 5.4464,1.48145 2.1582,8.27193 c 1.248,4.78323 2.4239,7.76764 2.7882,7.07623 0.3467,-0.65763 1.3431,-4.21557 2.2144,-7.90653 z m 69.6516,4.88269 c -0.2915,-0.75942 -0.7218,-1.18886 -0.9564,-0.95431 -0.2345,0.23455 -0.161,0.85589 0.1634,1.38076 0.8823,1.42758 1.398,1.15025 0.793,-0.42645 z m -264.26847,-3.54052 c 0.6127,-0.7382 0.9126,-1.34217 0.6665,-1.34217 -0.246,0 -0.9486,0.60397 -1.5612,1.34217 -0.6127,0.73819 -0.9126,1.34216 -0.6666,1.34216 0.2461,0 0.9487,-0.60397 1.5613,-1.34216 z m 287.00507,-3.19014 c 8.492,-2.02157 15.2449,-3.99115 15.0065,-4.37682 -0.2383,-0.38568 -5.3744,-0.97611 -11.4133,-1.31206 -6.039,-0.33596 -12.2617,-0.83062 -13.8282,-1.09924 -2.6828,-0.46004 -2.9806,-0.22711 -5.128,4.01052 -1.2538,2.47441 -2.69,4.75251 -3.1915,5.06245 -1.6816,1.03924 -0.9335,2.28634 1.1014,1.83615 1.1073,-0.24497 8.9612,-2.09942 17.4531,-4.121 z m -246.81457,-2.28969 c 1.1605,-1.04658 -0.7128,-0.88753 -2.6111,0.2217 l -2.2356,1.30628 2.2369,-0.59587 c 1.2303,-0.32773 2.4047,-0.74718 2.6098,-0.93211 z m 280.96037,-3.58701 c 0.205,-0.18058 -1.7075,-0.32834 -4.2501,-0.32834 -2.5427,0 -4.6231,0.35319 -4.6231,0.78487 0,0.71716 8.0084,0.30513 8.8732,-0.45653 z m 11.8745,0.84999 c -0.646,-0.25848 -1.4177,-0.22669 -1.715,0.0706 -0.2974,0.29732 0.2312,0.5088 1.1743,0.46995 1.0425,-0.043 1.2544,-0.25496 0.5407,-0.54059 z m -49.2128,-3.57911 c -0.646,-0.25848 -1.4177,-0.2267 -1.7151,0.0706 -0.2973,0.29733 0.2313,0.50881 1.1744,0.46996 1.0425,-0.043 1.2544,-0.25496 0.5407,-0.54059 z m 53.9599,-2.06286 c 0.3136,-0.50722 -0.046,-0.65722 -0.842,-0.35166 -1.5501,0.59484 -1.8336,1.23619 -0.5466,1.23619 0.4631,0 1.088,-0.39804 1.3886,-0.88453 z m 42.5084,-13.80993 c 29.6975,-7.3914 55.7382,-12.32073 75.6087,-14.31226 7.4312,-0.74478 27.9987,-1.58578 46.0811,-1.88425 39.0377,-0.64434 42.7957,-1.05687 52.3445,-5.74615 14.8208,-7.27823 21.8972,-16.6847 22.6294,-30.08045 0.3345,-6.11988 0.1016,-7.78868 -1.5347,-10.99614 -1.061,-2.07972 -3.1422,-4.51902 -4.6248,-5.42066 -7.0039,-4.25934 -32.9638,-5.00296 -66.5775,-1.90711 -23.198,2.13656 -20.7697,1.80025 -49.6601,6.87754 -37.0921,6.51867 -65.0398,12.58749 -88.4812,19.21366 -43.411,12.27097 -64.5327,17.26976 -77.7239,18.39466 l -6.4872,0.55319 0.013,6.35585 0.012,6.35584 26.4926,12.17182 26.4925,12.17183 9.51,-2.58886 c 5.2305,-1.42387 21.3882,-5.5452 35.906,-9.15851 z m -482.73297,7.53623 c -1.9222,-1.96851 -3.6962,-3.57911 -3.9423,-3.57911 -0.2461,0 1.1253,1.6106 3.0475,3.57911 1.9222,1.96852 3.6963,3.57912 3.9423,3.57912 0.2461,0 -1.1253,-1.6106 -3.0475,-3.57912 z M 1383.1386,686.683 c -0.6152,-0.24822 -1.6218,-0.24822 -2.2369,0 -0.6152,0.24822 -0.1119,0.45132 1.1184,0.45132 1.2304,0 1.7337,-0.2031 1.1185,-0.45132 z m 36.6754,-0.93503 c -1.113,-0.21402 -2.7236,-0.20589 -3.5791,0.0181 -0.8554,0.22395 0.055,0.39907 2.0238,0.38914 1.9685,-0.01 2.6685,-0.19318 1.5553,-0.4072 z m -258.8041,-6.06937 c 0,-0.13601 -0.7752,-0.45001 -1.7226,-0.69776 -1.176,-0.30754 -1.5784,-0.0746 -1.2681,0.73391 0.3631,0.94636 2.9907,0.9146 2.9907,-0.0362 z m 317.6463,-11.97555 c 0,-0.24606 -1.208,0.7099 -2.6843,2.12437 -1.4764,1.41446 -2.6844,2.77308 -2.6844,3.01914 0,0.24606 1.208,-0.7099 2.6844,-2.12437 1.4763,-1.41446 2.6843,-2.77307 2.6843,-3.01914 z M 991.00203,663.6597 c 0,-0.19341 -0.604,-0.58342 -1.3422,-0.8667 -0.7382,-0.28327 -1.3421,-0.12502 -1.3421,0.35166 0,0.47668 0.6039,0.8667 1.3421,0.8667 0.7382,0 1.3422,-0.15825 1.3422,-0.35166 z m 6.4312,-19.9447 c -0.6459,-0.25847 -1.4177,-0.22669 -1.715,0.0706 -0.2973,0.29733 0.2311,0.50881 1.1744,0.46996 1.0423,-0.043 1.2544,-0.25496 0.5406,-0.54059 z m -48.5604,-3.54115 c 0.2051,-0.17682 -1.4055,-0.31534 -3.5791,-0.30781 -2.8263,0.01 -3.5718,0.25406 -2.6172,0.85755 1.1603,0.73355 5.1151,0.38268 6.1963,-0.54974 z m 302.50967,-2.11106 c 1.0854,-0.70139 0.9569,-0.87 -0.6711,-0.88108 -1.1073,-0.007 -2.0132,0.38895 -2.0132,0.88108 0,1.12108 0.9495,1.12108 2.6843,0 z m 183.2059,-12.24892 c -0.8613,-0.22505 -2.2705,-0.22505 -3.1318,0 -0.8612,0.22506 -0.1566,0.40921 1.5659,0.40921 1.7224,0 2.4271,-0.18415 1.5659,-0.40921 z M 770.04193,603.16643 c 2.9865,-7.0589 5.8392,-11.483 10.526,-16.32411 2.4533,-2.53397 3.7645,-4.54298 3.2537,-4.98495 -30.0814,-26.02859 -49.534,-43.95315 -61.1417,-56.33903 -10.7241,-11.44303 -13.9157,-15.52498 -21.5861,-27.608 -17.039,-26.84115 -40.5738,-34.81378 -55.329,-18.7433 -7.8548,8.55483 -11.79541,20.53691 -12.4389,37.82206 -0.52463,14.09223 0.99545,22.52437 5.39,29.89939 2.8577,4.79588 2.9998,4.89013 21.219,14.08329 10.0881,5.09031 25.3069,13.24282 33.8195,18.1167 15.2018,8.70375 68.7135,41.36033 70.3722,42.94597 0.5242,0.50108 1.4137,-1.99676 2.3395,-6.56912 0.8215,-4.05769 2.4306,-9.59219 3.5758,-12.2989 z m 327.76417,15.66376 c -0.2821,-0.73537 -0.9165,-1.08769 -1.4095,-0.78293 -0.5514,0.34071 -0.429,0.85034 0.3174,1.32333 1.6292,1.03232 1.6851,1.00469 1.0921,-0.5404 z m -200.75587,-5.26425 c 0,-0.1858 -0.7046,-0.89044 -1.5658,-1.56586 -1.4192,-1.11299 -1.4508,-1.08134 -0.3378,0.33783 1.1689,1.49048 1.9036,1.96447 1.9036,1.22803 z m 262.88337,-15.46987 c 6.7436,-4.75721 12.4389,-8.79383 12.6563,-8.97025 0.7563,-0.6137 12.8738,-71.59419 19.7523,-115.70224 4.3002,-27.57475 11.9171,-67.05001 22.7901,-118.11074 21.1449,-99.29968 20.4376,-95.09709 17.9956,-106.92597 -2.6653,-12.91057 -9.3413,-23.50019 -17.4624,-27.69983 -10.9405,-5.6575 -31.3439,-2.23381 -38.512,6.46245 -5.1227,6.21468 -8.4559,15.2387 -10.6538,28.843 -0.5168,3.19883 -1.7805,18.90215 -2.8082,34.89631 -2.8206,43.89615 -5.4234,64.17661 -20.5559,160.16532 -2.9868,18.94693 -7.2335,45.43505 -9.4369,58.8625 -2.2033,13.42744 -4.0054,24.70165 -4.0047,25.05379 7e-4,0.35214 1.4771,-2.48028 3.2808,-6.29427 2.2757,-4.81181 3.7656,-6.93453 4.8671,-6.93453 0.8732,0 1.8093,0.35852 2.0801,0.79673 0.2709,0.4382 -0.7243,17.61458 -2.2115,38.16972 -1.4871,20.55515 -2.5909,37.71098 -2.4529,38.12407 0.1914,0.57246 10.7585,7.38105 12.1492,7.82795 0.1462,0.047 5.7834,-3.8068 12.5268,-8.56401 z m -488.81937,-4.80962 c 9.1703,-1.99396 23.7215,-6.82801 23.7094,-7.87651 -0.01,-0.83317 -25.7739,-14.91584 -41.1531,-22.4941 -7.1358,-3.51628 -14.0932,-7.46045 -15.4609,-8.76482 -6.04567,-5.76595 -9.56021,-18.08038 -9.57962,-33.56561 -0.0557,-44.40098 26.17112,-66.54977 55.87182,-47.18432 8.8036,5.74017 15.3873,13.34227 24.8624,28.70825 4.4805,7.26623 21.6427,26.3948 31.8637,35.51458 3.4471,3.0758 6.4613,5.59236 6.6982,5.59236 0.7596,0 7.4292,-11.03461 11.1101,-18.38152 4.4861,-8.95391 7.8072,-18.83582 9.6973,-28.85399 2.1711,-11.50726 1.3529,-30.11009 -1.7906,-40.71074 -7.9772,-26.90097 -26.0647,-45.83161 -53.043,-55.51548 -17.6641,-6.3405 -41.8686,-7.04326 -61.1241,-1.77469 -34.74604,9.50697 -64.62474,33.10123 -80.85488,63.84849 -8.59298,16.279 -12.5575,31.93526 -12.56573,49.6233 -0.007,14.80609 2.13604,23.96069 8.79695,37.58069 12.92041,26.41917 35.75909,41.60525 69.85976,46.45178 6.1954,0.88051 24.5498,-0.33804 33.1023,-2.19767 z m 114.9835,-8.46297 c 1.1559,-1.23032 1.9002,-2.23695 1.6542,-2.23695 -0.2461,0 -1.3931,1.00663 -2.5489,2.23695 -1.1559,1.23032 -1.9002,2.23694 -1.6542,2.23694 0.2461,0 1.3931,-1.00662 2.5489,-2.23694 z m -5.3686,-8.83823 c 0,-0.1858 -0.7047,-0.89044 -1.5659,-1.56586 -1.4192,-1.11299 -1.4508,-1.08134 -0.3378,0.33783 1.1689,1.49048 1.9037,1.96447 1.9037,1.22803 z m -195.95648,-0.82881 c 0,-0.14952 -1.50994,-1.65946 -3.35542,-3.35542 l -3.35542,-3.08355 3.08356,3.35542 c 2.8701,3.12315 3.62728,3.76682 3.62728,3.08355 z m 188.79818,-5.43464 c 0,-0.1858 -0.7046,-0.89044 -1.5658,-1.56586 -1.4192,-1.11299 -1.4508,-1.08134 -0.3379,0.33783 1.169,1.49048 1.9037,1.96447 1.9037,1.22803 z m 212.0625,-0.0138 c 0,-0.19341 -0.6249,-0.59145 -1.3887,-0.88453 -0.7962,-0.30556 -1.1554,-0.15556 -0.842,0.35166 0.5256,0.85022 2.2307,1.25756 2.2307,0.53287 z m 224.15157,-3.16601 1.78,-2.1755 -2.3685,1.72811 c -1.3026,0.95046 -2.1682,2.05689 -1.9236,2.45873 0.2446,0.40183 0.5094,0.60316 0.5884,0.44739 0.079,-0.15578 0.9446,-1.26221 1.9237,-2.45873 z m -443.37227,-3.08366 c 0,-0.1858 -0.7046,-0.89044 -1.5658,-1.56586 -1.4192,-1.11299 -1.4509,-1.08134 -0.3379,0.33783 1.1689,1.49048 1.9037,1.96447 1.9037,1.22803 z m -8.053,-7.15822 c 0,-0.1858 -0.7046,-0.89044 -1.5659,-1.56587 -1.4191,-1.11298 -1.4508,-1.08133 -0.3378,0.33784 1.1689,1.49047 1.9037,1.96447 1.9037,1.22803 z m 368.55897,-9.28104 c 0.8681,-1.66841 0.8122,-2.01325 -0.3262,-2.01325 -0.8916,0 -1.3736,0.83733 -1.3736,2.38608 0,2.62317 0.1592,2.58824 1.6998,-0.37283 z M 528.40161,533.75979 c 4.67522,-0.69166 12.83006,-2.36041 18.12188,-3.70834 l 9.62148,-2.45079 -0.66922,-3.15322 c -0.36807,-1.73427 -0.61737,-8.69374 -0.55401,-15.46547 0.1113,-11.89603 0.0507,-12.32542 -1.79404,-12.70146 -1.05008,-0.21406 -5.9409,-1.02417 -10.86849,-1.80026 -18.55063,-2.92168 -36.74606,-8.66877 -51.62744,-16.30669 -13.52545,-6.94198 -22.26438,-18.57846 -26.75029,-35.61983 -2.95217,-11.21487 -3.34378,-32.10863 -0.91404,-48.76541 2.92876,-20.07765 8.7268,-41.53032 14.87272,-55.02887 13.43226,-29.50185 38.91461,-47.00376 68.37645,-46.96264 10.6969,0.0149 18.53664,1.56474 25.33062,5.00751 17.36679,8.80042 30.90616,22.3919 45.28862,45.4629 4.58591,7.3563 25.76838,48.21562 27.10028,52.27425 0.3243,0.98827 1.2593,0.95059 5.2879,-0.21309 8.0044,-2.3121 14.2408,-3.38344 23.2369,-3.99176 l 8.5004,-0.57481 1.0623,-6.71083 c 1.5334,-9.68647 1.4218,-29.80077 -0.222,-40.01587 -7.3186,-45.48085 -34.8834,-81.67403 -76.00169,-99.79186 -55.66003,-24.52525 -123.5186,-12.83282 -175.86911,30.3032 -7.88383,6.49616 -21.99663,20.9885 -27.84185,28.5906 -42.57588,55.37285 -47.87378,123.62877 -13.59273,175.12293 7.19233,10.80372 21.18075,25.1532 31.63361,32.4501 30.17254,21.06277 69.46569,29.7907 108.27175,24.04971 z m 202.66732,-3.07039 c -1.4145,-1.47639 -2.7731,-2.68434 -3.0192,-2.68434 -0.246,0 0.7099,1.20795 2.1244,2.68434 1.4145,1.47638 2.7731,2.68433 3.0191,2.68433 0.2461,0 -0.7099,-1.20795 -2.1243,-2.68433 z m 324.68067,-3.13173 c -0.2833,-0.73819 -0.6733,-1.34216 -0.8667,-1.34216 -0.1934,0 -0.3516,0.60397 -0.3516,1.34216 0,0.7382 0.3899,1.34217 0.8667,1.34217 0.4766,0 0.6349,-0.60397 0.3516,-1.34217 z m 81.9961,-0.89477 c 0,-0.7382 -0.1583,-1.34217 -0.3517,-1.34217 -0.1934,0 -0.5834,0.60397 -0.8667,1.34217 -0.2833,0.73819 -0.1251,1.34216 0.3517,1.34216 0.4766,0 0.8667,-0.60397 0.8667,-1.34216 z m -417.86157,-7.89704 c 0,-0.16027 -1.1072,-1.26756 -2.4606,-2.46064 l -2.4606,-2.16922 2.1692,2.46064 c 2.0275,2.29984 2.752,2.87098 2.752,2.16922 z m -88.93719,-7.51925 c -0.29733,-0.29733 -0.50881,0.23116 -0.46996,1.17439 0.043,1.04238 0.25496,1.25439 0.54059,0.5406 0.25848,-0.64592 0.22669,-1.41767 -0.0706,-1.71499 z m -224.23518,-9.49883 c 0,-0.16979 -0.90596,-1.07575 -2.01325,-2.01325 l -2.01325,-1.70454 1.70454,2.01325 c 1.60185,1.89196 2.32196,2.42059 2.32196,1.70454 z m -14.46779,-4.73794 5.47986,-0.57275 -4.30873,-5.01961 c -12.42684,-14.47712 -22.1491,-33.73557 -28.33185,-56.12153 -0.15105,-0.54688 -2.82527,-1.26828 -5.94272,-1.60312 -21.75029,-2.33614 -46.25505,-8.41321 -55.31518,-13.71792 -10.57921,-6.19413 -16.39599,-14.8474 -19.40725,-28.87093 -2.1994,-10.24271 -2.17448,-44.35628 0.0445,-60.84492 5.63688,-41.88713 17.59141,-87.3858 29.85703,-113.6352 19.49698,-41.72503 59.65064,-88.06963 88.36567,-101.99005 9.44574,-4.57902 14.14191,-5.24483 19.68835,-2.79143 17.49757,7.74 47.58532,40.57783 83.70715,91.3582 6.12619,8.61224 12.34593,17.59662 13.82166,19.96537 l 2.68313,4.30683 4.92128,-0.59798 c 7.23827,-0.87947 28.50016,-0.58706 37.42502,0.51468 17.72131,2.18782 34.65536,7.41377 50.89949,15.70774 l 11.03522,5.63451 -0.52717,-5.98848 c -3.62444,-41.1726 -17.82762,-77.3586 -42.21229,-107.54582 -7.64486,-9.46407 -22.46343,-23.61964 -32.46127,-31.00899 -26.26773,-19.414358 -57.32023,-32.072608 -92.16217,-37.568968 -13.00364,-2.05128 -49.79403,-2.31649 -62.18709,-0.44819 -28.96529,4.36661 -50.81197,11.10697 -76.98708,23.7527 C 241.04467,128.228 186.96363,202.97035 178.49656,285.94315 c -1.46294,14.33614 -0.65073,38.9627 1.72719,52.36891 10.67491,60.18272 47.27924,110.08857 100.03716,136.38927 25.80433,12.86388 48.81501,19.14225 81.71196,22.29476 5.9924,0.57425 24.82669,0.58281 30.27112,0.0138 z m 165.70195,-11.50675 c 3.59759,-14.09675 11.12871,-29.8901 20.08779,-42.12572 13.30369,-18.16913 36.04649,-35.82538 56.97411,-44.23155 l 5.04891,-2.02803 -5.75571,-12.17838 c -15.96842,-33.78745 -30.54636,-56.62894 -44.30358,-69.4172 -12.56071,-11.67604 -23.81024,-17.61675 -36.3308,-19.18578 -28.62503,-3.5872 -56.02224,13.09508 -71.1406,43.3178 -5.98994,11.97433 -12.6522,36.437 -15.53539,57.04323 -1.90837,13.63922 -1.29287,35.04343 1.28309,44.61949 4.60036,17.10179 12.65628,27.27016 27.02739,34.11463 10.72832,5.10952 21.13864,8.79241 33.29011,11.77712 9.51465,2.33704 24.22694,4.93706 26.53388,4.68918 0.72735,-0.0781 1.86963,-2.66771 2.8208,-6.39479 z m 214.37601,-15.41628 c -0.2973,-0.29733 -0.5088,0.23115 -0.47,1.17439 0.043,1.04237 0.255,1.25439 0.5406,0.5406 0.2585,-0.64592 0.2267,-1.41767 -0.071,-1.71499 z m -291.79096,-2.03189 c -1.41446,-1.47639 -2.77308,-2.68434 -3.01914,-2.68434 -0.24606,0 0.7099,1.20795 2.12436,2.68434 1.41447,1.47638 2.77308,2.68433 3.01915,2.68433 0.24606,0 -0.7099,-1.20795 -2.12437,-2.68433 z M 240.28299,450.7163 c 0,-0.18581 -0.70464,-0.89044 -1.56586,-1.56587 -1.41917,-1.11298 -1.45082,-1.08134 -0.33783,0.33784 1.16891,1.49047 1.90369,1.96446 1.90369,1.22803 z m -15.21123,-15.21124 c 0,-0.1858 -0.70464,-0.89043 -1.56586,-1.56586 -1.41918,-1.11299 -1.45082,-1.08134 -0.33784,0.33783 1.16892,1.49048 1.9037,1.96447 1.9037,1.22803 z m 138.33746,-9.28103 c -2.45169,-14.00625 -2.29039,-35.59821 0.37265,-49.88389 5.82337,-31.23902 20.19533,-60.66964 41.87064,-85.74192 24.14212,-27.92566 62.81258,-51.29262 98.59009,-59.57388 4.67521,-1.08215 9.62677,-2.24876 11.00346,-2.59244 l 2.50306,-0.62492 -2.55565,-3.57911 c -1.40562,-1.96851 -5.9237,-8.41092 -10.0402,-14.31645 -32.51832,-46.65088 -64.27383,-82.41911 -82.58172,-93.01704 -5.35133,-3.09772 -9.19063,-2.70751 -18.12819,1.84253 -29.87777,15.21051 -70.61811,63.89692 -88.7195,106.02353 -10.82383,25.18989 -21.49609,67.19487 -26.80415,105.49862 -2.22533,16.05827 -2.26478,51.62076 -0.067,60.39753 1.95307,7.79955 6.01676,16.26504 9.31732,19.40988 6.8126,6.49115 20.62479,12.24369 36.95947,15.39295 9.91254,1.9111 23.03147,3.92383 26.28934,4.03336 2.49646,0.0839 2.5592,-0.0191 1.99038,-3.26875 z m 100.21417,-2.6657 c -0.29732,-0.29732 -0.5088,0.23116 -0.46995,1.1744 0.0429,1.04237 0.25496,1.25439 0.54059,0.5406 0.25847,-0.64592 0.22669,-1.41767 -0.0706,-1.715 z m 282.20934,-7.70926 c 0,-0.1698 -0.9059,-1.07576 -2.0132,-2.01325 l -2.0133,-1.70455 1.7046,2.01325 c 1.6018,1.89196 2.3219,2.42059 2.3219,1.70455 z m -447.38915,-2.68434 c 0,-0.16979 -0.90596,-1.07575 -2.01325,-2.01325 l -2.01325,-1.70454 1.70455,2.01325 c 1.60185,1.89195 2.32195,2.42059 2.32195,1.70454 z m 165.17981,-4.81763 c -0.29732,-0.29732 -0.5088,0.23116 -0.46995,1.1744 0.0429,1.04237 0.25496,1.25439 0.54059,0.5406 0.25847,-0.64593 0.22669,-1.41767 -0.0706,-1.715 z M 284.74192,366.26345 c -0.22396,-0.85549 -0.39908,0.0552 -0.38914,2.02368 0.01,1.96852 0.19317,2.66846 0.40719,1.55543 0.21402,-1.11302 0.2059,-2.72362 -0.0181,-3.57911 z m 400.78651,1.81863 c -0.2973,-0.29733 -0.5088,0.23115 -0.47,1.17439 0.043,1.04238 0.255,1.25439 0.5406,0.5406 0.2585,-0.64592 0.2267,-1.41767 -0.071,-1.71499 z m 0,-11.63212 c -0.2973,-0.29733 -0.5088,0.23116 -0.47,1.1744 0.043,1.04237 0.255,1.25439 0.5406,0.54059 0.2585,-0.64592 0.2267,-1.41766 -0.071,-1.71499 z m -400.8607,-0.89478 c -0.29733,-0.29732 -0.50881,0.23116 -0.46996,1.1744 0.043,1.04237 0.25496,1.25439 0.54059,0.5406 0.25848,-0.64593 0.2267,-1.41767 -0.0706,-1.715 z m 0.89478,-15.21123 c -0.29734,-0.29733 -0.50881,0.23116 -0.46996,1.1744 0.043,1.04237 0.25496,1.25439 0.54059,0.54059 0.25848,-0.64592 0.22669,-1.41766 -0.0706,-1.71499 z m 312.18442,-20.82223 c -1.41446,-1.47639 -2.77308,-2.68434 -3.01914,-2.68434 -0.24607,0 0.7099,1.20795 2.12436,2.68434 1.41447,1.47638 2.77308,2.68433 3.01915,2.68433 0.24606,0 -0.7099,-1.20795 -2.12437,-2.68433 z m 563.80357,-30.18013 c -0.2973,-0.29733 -0.5088,0.23115 -0.47,1.17439 0.043,1.04237 0.255,1.25439 0.5406,0.5406 0.2585,-0.64592 0.2267,-1.41767 -0.071,-1.71499 z M 521.69077,229.14915 c -0.30415,-0.49213 -0.73056,-0.89478 -0.94758,-0.89478 -0.21702,0 -0.39458,0.40265 -0.39458,0.89478 0,0.49213 0.42641,0.89478 0.94759,0.89478 0.52117,0 0.69873,-0.40265 0.39457,-0.89478 z m 12.24728,-0.61131 c -0.64592,-0.25841 -1.41767,-0.22665 -1.71499,0.0707 -0.29733,0.29733 0.23116,0.50886 1.17439,0.47002 1.04238,-0.0429 1.25439,-0.25501 0.5406,-0.54062 z m 691.49585,-3.30567 c 0,-0.18585 -0.7046,-0.89048 -1.5658,-1.56586 -1.4192,-1.11302 -1.4508,-1.08134 -0.3379,0.33786 1.1689,1.49044 1.9037,1.9644 1.9037,1.228 z m -47.4232,-1.89908 c 0.6126,-0.73819 0.9126,-1.34217 0.6665,-1.34217 -0.2461,0 -0.9486,0.60398 -1.5613,1.34217 -0.6127,0.73819 -0.9126,1.34217 -0.6665,1.34217 0.246,0 0.9486,-0.60398 1.5613,-1.34217 z M 357.49895,156.22472 c 0.61265,-0.73819 0.91258,-1.34217 0.66652,-1.34217 -0.24607,0 -0.94865,0.60398 -1.56129,1.34217 -0.61265,0.73819 -0.91258,1.34216 -0.66652,1.34216 0.24607,0 0.94865,-0.60397 1.56129,-1.34216 z m 16.10601,-17.38098 c 0,-0.24607 -2.01325,1.53562 -4.47389,3.9593 -2.46064,2.4236 -4.47389,4.60793 -4.47389,4.854 0,0.24606 2.01325,-1.53562 4.47389,-3.95922 2.46064,-2.42369 4.47389,-4.60802 4.47389,-4.85408 z m -127.05852,0.91178 c 0,-0.24607 -1.6106,1.12527 -3.57912,3.04752 -1.96851,1.92217 -3.57911,3.69615 -3.57911,3.94222 0,0.24606 1.6106,-1.12528 3.57911,-3.04744 1.96852,-1.92225 3.57912,-3.69624 3.57912,-3.9423 z m 211.16769,4.99304 c 0,-0.16035 -1.10729,-1.26763 -2.46065,-2.46064 l -2.46064,-2.16921 2.16922,2.46064 c 2.02747,2.29976 2.75207,2.87089 2.75207,2.16921 z m -204.90424,-10.8933 c 1.15582,-1.23032 1.90018,-2.23695 1.65411,-2.23695 -0.24606,0 -1.39307,1.00663 -2.54889,2.23695 -1.15583,1.23032 -1.90018,2.23695 -1.65411,2.23695 0.24606,0 1.39306,-1.00663 2.54889,-2.23695 z m 329.27842,-5.25915 c 0,-0.18585 -0.70464,-0.89048 -1.56586,-1.56586 -1.41917,-1.11302 -1.45082,-1.08134 -0.33783,0.33787 1.16891,1.49043 1.90369,1.96439 1.90369,1.22799 z m -15.21123,-15.21123 c 0,-0.18584 -0.70464,-0.89048 -1.56586,-1.56586 -1.41917,-1.11301 -1.45082,-1.08134 -0.33783,0.33787 1.16891,1.49043 1.90369,1.9644 1.90369,1.22799 z M 1985.5481,771.67143 c -10.8855,-2.43629 -20.2925,-7.09185 -22.8695,-11.31828 -3.182,-5.21838 -2.0979,-17.64026 2.3624,-27.06843 6.3975,-13.52322 21.9275,-23.68798 62.0399,-40.60667 31.0819,-13.10972 50.9745,-24.32023 57.6833,-32.50748 4.3003,-5.24789 7.3627,-11.73403 8.6428,-18.30481 2.5195,-12.93311 0.1349,-18.31653 -25.8622,-58.38444 -13.1953,-20.3371 -31.4999,-50.09926 -32.6201,-53.03826 -0.2427,-0.63649 -2.2266,0.96701 -4.7331,3.82545 -11.5412,13.16136 -35.3853,35.90117 -66.7859,63.69269 -34.4533,30.4933 -69.445,50.33661 -100.6606,57.08314 -11.2341,2.42799 -28.8628,3.91864 -38.4309,3.24966 -30.336,-2.121 -60.1352,-23.26686 -72.4112,-51.38385 -1.6511,-3.78149 -3,-7.47941 -2.9978,-8.2176 0,-0.73819 -10.5722,9.13088 -23.4989,21.93128 -36.3161,35.96141 -53.1123,49.80034 -77.162,63.57612 -30.7047,17.58778 -64.6522,27.49594 -81.0937,23.66866 -21.646,-5.03872 -39.3807,-30.71863 -45.1187,-65.33192 -1.8518,-11.17121 -1.4364,-33.22291 0.8618,-45.74101 7.5015,-40.86042 30.1895,-88.5513 63.5871,-133.66204 25.3888,-34.29311 68.328,-69.58588 103.913,-85.40877 19.3669,-8.61146 25.4432,-9.88513 47.159,-9.88513 23.1982,0 35.1747,1.76283 46.2228,6.80359 8.0001,3.65013 13.2327,9.84342 20.3329,24.06627 6.1517,12.32275 7.8626,18.52175 7.7792,28.18551 -0.076,8.81267 -0.4013,10.46104 -10.2402,51.89715 -6.723,28.31366 -8.2347,37.8931 -8.3311,52.79192 -0.074,11.42217 0.1983,13.99585 2.2755,21.51375 4.1482,15.01382 8.4807,22.99656 17.6115,32.45046 6.305,6.52805 13.4026,10.90076 20.7718,12.79724 11.4238,2.93991 32.7449,0.0644 50.34,-6.78904 23.6666,-9.2184 52.5333,-27.79159 80.177,-51.587 11.3177,-9.74221 46.8044,-44.25216 53.7558,-52.27632 l 4.4119,-5.09277 0.9576,-11.0756 c 0.5267,-6.09158 1.7546,-14.66242 2.7287,-19.04631 2.3916,-10.76327 8.1535,-28.21875 11.8414,-35.87343 7.9173,-16.43274 27.5325,-40.79816 41.122,-51.08054 7.2085,-5.45424 17.0325,-10.11835 22.7346,-10.79368 5.5025,-0.65169 15.4627,0.97311 19.927,3.25064 15.2405,7.77509 20.0504,34.47245 9.707,53.87859 -4.2929,8.05432 -12.4308,16.93786 -28.527,31.14095 -24.5526,21.66491 -25.8914,23.04984 -25.869,26.76149 0.032,5.34761 3.2999,18.44594 6.7812,27.18269 4.4609,11.19524 16.224,33.19579 29.2848,54.77139 5.9583,9.84256 15.3513,25.74724 20.8736,35.34374 10.0343,17.43763 10.0422,17.44803 12.9832,17.19342 5.977,-0.51743 24.9617,-12.39896 50.4056,-31.54612 28.9095,-21.75512 61.6186,-49.88285 88.6369,-76.2219 l 14.4339,-14.07106 3.3588,-10.53535 c 9.5088,-29.82568 22.865,-55.2099 43.8383,-83.31713 16.7211,-22.40882 32.788,-36.60909 53.1834,-47.00499 26.5966,-13.5568 49.5134,-14.96442 69.4561,-4.26623 5.029,2.69782 7.3739,4.7442 11.898,10.38342 15.1883,18.93183 20.5121,36.13962 18.1526,58.67363 -3.6076,34.45568 -23.3247,64.35982 -68.9735,104.60963 -29.6389,26.13345 -56.5801,47.7716 -76.2606,61.24959 l -11.3893,7.79978 0.5021,5.53991 c 2.9169,32.18561 22.4568,51.62221 56.4777,56.17894 10.5826,1.41743 31.2753,0.49649 42.7496,-1.90261 47.4391,-9.91874 96.9049,-37.19245 153.9019,-84.85603 18.5176,-15.48531 32.1041,-28.06404 57.8418,-53.5514 l 22.0507,-21.83621 1.0345,-7.32826 c 7.1905,-50.93331 14.1395,-73.34812 24.9562,-80.49859 4.6382,-3.06612 13.654,-5.46712 18.2263,-4.85384 7.057,0.94654 14.7246,6.41781 19.6187,13.999 2.4812,3.84355 2.5678,4.35759 2.5607,15.21123 -0.012,18.6187 -2.6876,36.44486 -10.4148,69.39383 -7.6255,32.51498 -10.1498,46.84751 -14.5773,82.767 -1.4863,12.05714 -2.8933,23.33134 -3.1269,25.05379 -0.312,2.30169 0.5565,0.99736 3.2769,-4.92128 10.7523,-23.39393 29.9634,-58.23513 44.344,-80.42254 21.6825,-33.45311 47.2816,-59.94501 75.3519,-77.97995 8.0507,-5.17245 28.8251,-15.23317 39.3703,-19.06634 17.9703,-6.53223 35.3882,-8.13501 54.5809,-5.02249 22.163,3.59423 40.2878,12.27047 44.9807,21.53197 3.2387,6.39164 2.4646,17.98252 -1.7987,26.92952 -3.6075,7.57102 -4.1206,7.71372 -24.5296,6.82137 -17.9721,-0.7858 -28.4229,-0.0958 -42.8109,2.82668 -21.4655,4.36003 -45.0308,15.00506 -62.1871,28.09158 -29.3177,22.36309 -61.3332,66.01118 -83.0977,113.29099 -11.4855,24.95058 -26.3341,67.48779 -30.5737,87.58568 -3.0911,14.65339 -4.7526,20.10098 -6.7352,22.08362 -4.654,4.654 -24.0608,11.34578 -35.3109,12.1758 -6.1678,0.45506 -7.6991,0.26747 -10.8221,-1.32574 -11.9455,-6.09417 -17.3872,-21.77446 -19.0889,-55.00558 -1.197,-23.37345 -0.3429,-36.92531 6.6897,-106.14507 1.7204,-16.93379 2.9956,-30.92112 2.8339,-31.08293 -0.1619,-0.16182 -4.1236,4.23322 -8.804,9.76676 -33.8992,40.0787 -78.5884,79.8419 -120.6578,107.35799 -53.5374,35.01684 -102.9292,50.76774 -148.2506,47.27668 -31.8786,-2.45557 -53.4637,-11.52335 -72.5294,-30.46912 -13.5071,-13.42217 -22.6502,-32.26176 -27.3874,-56.43243 -2.7566,-14.06475 -3.4937,-23.27637 -3.4208,-42.74876 l 0.058,-15.48841 -8.6754,8.03379 c -4.7714,4.41859 -10.6886,10.11792 -13.1492,12.66518 -8.1571,8.44424 -36.4598,34.3422 -51.8972,47.48763 -18.0607,15.37935 -95.7659,78.82551 -116.7686,95.34139 -39.61,31.14816 -67.8409,47.92981 -90.2636,53.65652 -7.822,1.99773 -17.8564,2.66961 -22.9258,1.53504 z m 27.0137,-7.28259 c 21.0034,-7.09222 48.9018,-24.36859 83.7477,-51.86156 22.9576,-18.11331 101.568,-82.39616 118.3019,-96.74022 18.9795,-16.26892 46.166,-41.5622 62.7646,-58.39386 l 12.6571,-12.83474 0.6077,-7.60561 c 0.7251,-9.07469 4.3399,-30.97963 6.6031,-40.01317 l 1.6182,-6.45897 -13.0588,12.72242 c -50.538,49.23642 -119.9386,102.39373 -138.1403,105.8084 -2.3248,0.43614 -3.9202,0.21237 -5.4004,-0.75745 -1.1554,-0.75705 -5.4504,-7.34526 -9.5446,-14.64047 -4.0941,-7.29521 -11.8708,-20.51172 -17.2815,-29.37002 -14.544,-23.81109 -17.8885,-29.69823 -26.9413,-47.42326 -10.6869,-20.92458 -15.7062,-36.3254 -15.7062,-48.19225 l 0,-4.6785 10.0662,-8.99292 c 5.5365,-4.9461 14.6968,-13.12734 20.3563,-18.18052 23.7529,-21.20837 30.402,-32.42898 29.3058,-49.45492 -0.8447,-13.12085 -5.4845,-21.67563 -13.8277,-25.49524 -6.4067,-2.93308 -13.7584,-3.56095 -20.1021,-1.71678 -16.9277,4.921 -42.5562,31.4855 -55.7293,57.76451 -10.6295,21.20476 -16.988,52.25924 -14.9031,72.78504 2.4264,23.88753 8.411,36.35094 43.0311,89.61512 16.9384,26.06036 21.3865,33.65934 25.01,42.72676 2.9637,7.41633 3.3285,11.55718 1.7639,20.02114 -3.8285,20.71011 -18.3939,32.39181 -65.2361,52.32034 -34.8564,14.82929 -51.7037,24.16171 -58.4248,32.36389 -5.0931,6.2155 -8.0131,13.45891 -8.503,21.09262 -0.5051,7.86869 0.3718,9.92918 5.4367,12.77583 12.3979,6.96796 26.415,7.9179 41.5289,2.81439 z m -35.5141,-42.99908 c 0,-0.24606 -1.2079,0.7099 -2.6843,2.12437 -1.4764,1.41446 -2.6844,2.77307 -2.6844,3.01914 0,0.24606 1.208,-0.7099 2.6844,-2.12437 1.4764,-1.41446 2.6843,-2.77308 2.6843,-3.01914 z m 728.797,-1.95088 c 10.0309,-3.17636 14.5124,-5.23986 16.691,-7.68535 0.8138,-0.9136 2.3675,-5.48626 3.4526,-10.16147 4.6678,-20.11232 5.7268,-24.07732 9.9902,-37.40498 23.1873,-72.48474 57.9922,-132.27201 97.3721,-167.26428 22.3048,-19.81972 45.3327,-31.09243 77.8457,-38.10743 7.3418,-1.58408 11.8046,-1.84161 32.7446,-1.88961 18.3296,-0.0421 24.5815,-0.33531 25.6268,-1.20222 2.2086,-1.83171 4.9176,-9.13068 5.5823,-15.04099 1.0338,-9.19093 -1.8891,-14.06137 -12.0566,-20.09 -17.2419,-10.22338 -49.9895,-14.94177 -68.8979,-9.92708 -23.2658,6.1703 -46.982,17.92477 -67.2558,33.33384 -14.7166,11.18529 -35.9825,33.24851 -48.6057,50.42799 -18.0887,24.61783 -41.2746,65.53159 -58.131,102.57819 -4.9219,10.81717 -7.1211,14.7324 -8.3876,14.93235 -0.9441,0.14905 -1.9136,-0.2536 -2.1546,-0.89478 -0.5154,-1.37128 7.2762,-64.8068 10.0345,-81.69583 1.0448,-6.39766 4.6719,-23.91295 8.0602,-38.92286 9.6338,-42.67614 11.6364,-55.30712 11.6408,-73.42033 0,-9.86867 -0.1151,-10.52406 -2.5877,-14.42284 -2.8805,-4.5421 -7.0242,-8.04113 -11.9693,-10.10737 -4.1307,-1.72588 -6.3055,-1.72015 -12.2064,0.0322 -6.501,1.93062 -11.6126,6.86381 -15.219,14.6879 -8.6723,18.81481 -17.1568,73.20723 -27.3466,175.31499 -5.2184,52.29148 -6.2488,71.12547 -4.9472,90.43678 1.9618,29.10846 7.2146,44.66313 16.5212,48.92284 4.056,1.85647 13.7368,0.88466 24.2034,-2.42967 z m -1129.434,-13.07075 c -0.6151,-0.24822 -1.6218,-0.24822 -2.2369,0 -0.6152,0.24822 -0.1119,0.45132 1.1184,0.45132 1.2304,0 1.7337,-0.2031 1.1185,-0.45132 z m 11.7993,-3.44907 c 15.8206,-2.75888 39.1813,-12.06498 59.845,-23.8402 21.1909,-12.07563 41.2094,-28.92673 77.628,-65.34532 12.7017,-12.70169 23.655,-23.09399 24.3406,-23.09399 0.7628,0 1.8325,2.10722 2.7562,5.42981 3.3437,12.02683 12.0469,25.87973 22.1154,35.20142 14.9841,13.87265 32.5309,21.52808 51.8298,22.61271 36.7267,2.06409 78.1883,-14.40352 119.2442,-47.36107 17.9106,-14.37768 63.7827,-56.68848 75.2954,-69.44972 5.9466,-6.5915 10.7068,-12.2342 10.5782,-12.53934 -3.699,-8.77611 -8.2661,-26.73408 -8.2664,-32.50399 -2e-4,-2.11908 -2.1514,-0.26871 -17.2247,14.81649 -42.4231,42.45647 -74.0335,67.08127 -105.8075,82.42529 -19.9012,9.61048 -33.99,13.61661 -51.0024,14.50247 -15.4203,0.80296 -23.9893,-1.77071 -34.9597,-10.50012 -10.7298,-8.53798 -18.8103,-22.00795 -23.3192,-38.87248 -2.0975,-7.84532 -2.3835,-10.54635 -2.3209,-21.92207 0.089,-16.15391 1.5182,-25.73164 7.8499,-52.59587 9.218,-39.10983 10.3348,-44.45326 10.7935,-51.6458 0.4142,-6.49378 0.1737,-7.96223 -2.5913,-15.81997 -3.7483,-10.65239 -10.4898,-22.75003 -15.8498,-28.44247 -2.8546,-3.03169 -5.589,-4.85435 -9.3952,-6.26264 -11.7214,-4.33693 -16.5099,-4.91734 -40.7124,-4.93476 l -22.8169,-0.0164 -9.663,3.34536 c -30.7496,10.64559 -64.773,34.09008 -95.9401,66.10939 -15.7589,16.1897 -31.6586,37.75688 -47.2422,64.08155 -19.5956,33.10187 -33.6713,70.71274 -37.2486,99.52998 -3.2091,25.85156 1.451,52.49069 12.6576,72.35607 4.2202,7.48093 15.2896,19.46601 20.4027,22.09057 7.934,4.07247 16.4094,4.84489 29.0238,2.64511 z m -3.5226,-50.12219 c -8.5054,-2.95296 -13.8304,-16.22874 -13.8558,-34.54439 -0.037,-26.3089 14.286,-64.97386 40.1088,-108.27677 12.9073,-21.64469 24.2259,-36.4736 39.5132,-51.76739 31.8456,-31.85925 56.1503,-43.91558 86.2967,-42.80752 10.1002,0.37123 12.2638,1.57595 15.9498,8.88114 5.7883,11.47137 5.0493,46.57872 -1.571,74.64283 -11.9497,50.65585 -44.8092,97.029 -90.3835,127.55432 -26.1078,17.48685 -63.8641,30.55136 -76.0582,26.31778 z m 18.343,-5.38493 c 16.4925,-3.35401 41.5306,-15.04075 59.9501,-27.98238 8.0699,-5.66996 13.3388,-10.04591 23.3522,-19.39484 42.5435,-39.72046 65.5573,-91.35289 65.6062,-147.19104 0.015,-16.90587 -0.9868,-23.66984 -4.2001,-28.36004 -2.7573,-4.0248 -4.9653,-4.75107 -14.3366,-4.71553 -19.8552,0.0752 -37.2127,6.52167 -56.5747,21.01129 -9.8456,7.36792 -30.5456,27.68181 -39.1913,38.46025 -13.0378,16.25405 -26.5786,38.05829 -38.7948,62.47003 -17.4958,34.96208 -25.8292,65.00815 -23.4177,84.43237 1.3956,11.24059 5.9503,20.65096 10.9803,22.68603 2.0896,0.84542 7.9674,0.34478 16.6264,-1.41614 z m 99.3204,-59.90412 c 0.6126,-0.73819 0.9126,-1.34217 0.6665,-1.34217 -0.2461,0 -0.9487,0.60398 -1.5613,1.34217 -0.6127,0.73819 -0.9126,1.34217 -0.6665,1.34217 0.246,0 0.9486,-0.60398 1.5613,-1.34217 z m -58.608,-118.55813 c 0.8907,-0.98425 1.4182,-1.78955 1.1721,-1.78955 -0.246,0 -1.1761,0.8053 -2.0669,1.78955 -0.8907,0.98426 -1.4182,1.78956 -1.1721,1.78956 0.246,0 1.1761,-0.8053 2.0669,-1.78956 z m 18.3429,-18.34295 c 1.1558,-1.23032 1.9002,-2.23695 1.6541,-2.23695 -0.246,0 -1.393,1.00663 -2.5488,2.23695 -1.1558,1.23032 -1.9002,2.23694 -1.6541,2.23694 0.246,0 1.3931,-1.00662 2.5488,-2.23694 z m 77.6051,-33.27948 c -0.8707,-0.22686 -2.0786,-0.21195 -2.6844,0.0332 -0.6058,0.24511 0.1065,0.43072 1.5829,0.41249 1.4764,-0.0183 1.972,-0.21878 1.1015,-0.44564 z m 683.8853,275.82646 c 43.4858,-5.42774 87.6825,-25.33539 136.8671,-61.64934 37.0902,-27.3845 77.0733,-65.48689 104.3827,-99.47281 l 7.19,-8.94779 1.5156,-13.42167 c 0.8336,-7.38192 1.7668,-15.2336 2.0736,-17.44818 l 0.5578,-4.0265 -21.3977,20.65808 c -27.1683,26.22932 -34.2968,32.79036 -51.3727,47.28307 -52.3051,44.3927 -97.181,70.79277 -142.885,84.05784 -14.6341,4.2474 -24.3073,5.87569 -38.8185,6.5343 -40.7381,1.84897 -68.9547,-13.61483 -78.2357,-42.87624 -2.066,-6.51376 -4.3819,-23.77329 -3.4942,-26.04115 0.2223,-0.56806 4.8957,-4.05273 10.385,-7.74369 23.4224,-15.74858 62.1843,-47.47447 92.0487,-75.34028 29.6942,-27.70684 46.8955,-53.67296 52.3398,-79.00898 2.095,-9.74933 2.1529,-27.55562 0.1149,-35.34374 -3.1654,-12.09721 -14.6392,-30.75417 -22.6572,-36.84192 -8.1087,-6.15655 -24.9786,-10.21605 -36.0682,-8.67928 -28.2421,3.91375 -56.7968,21.51372 -78.1414,48.16314 -31.3485,39.13965 -49.3376,77.76483 -58.7789,126.20614 -7.5667,38.82293 -7.7581,80.76381 -0.4983,109.17879 10.0605,39.37683 35.6661,64.19878 75.1784,72.87745 14.2594,3.132 33.7649,3.87101 49.6942,1.88276 z m -83.247,-161.34585 c 0.01,-2.20567 4.2214,-22.52917 7.2767,-35.07036 5.1609,-21.18441 8.9257,-31.6742 17.3594,-48.36772 22.6089,-44.75206 45.3369,-68.00315 66.4733,-68.00315 4.35,0 5.8588,0.43636 8.7465,2.52964 9.4476,6.84852 13.4599,26.43069 8.7005,42.46296 -4.433,14.93279 -15.047,29.6882 -36.1957,50.31857 -15.0089,14.64106 -24.6327,22.66465 -50.8383,42.38497 -17.4092,13.10087 -21.5265,15.73037 -21.5224,13.74509 z m 49.6588,-41.47244 c 12.9161,-10.72117 35.8103,-34.03143 42.0268,-42.79062 10.4248,-14.68864 15.5145,-28.81265 14.4115,-39.99129 -0.9215,-9.33934 -2.9758,-14.67232 -7.3289,-19.02541 l -3.9319,-3.93188 -5.5993,0.44946 c -10.0791,0.80905 -22.1672,8.64917 -32.529,21.09763 -11.5861,13.91931 -28.4354,42.34582 -35.6364,60.12204 -3.1279,7.72187 -8.7433,27.39566 -11.6201,40.71241 -1.2758,5.90554 -2.6683,12.22547 -3.0945,14.04429 -0.7743,3.3045 -0.7617,3.29707 16.7896,-9.97624 9.6604,-7.30576 21.5909,-16.62543 26.5122,-20.71039 z m 1.3422,2.32589 c 0.6126,-0.73819 0.9126,-1.34217 0.6665,-1.34217 -0.2461,0 -0.9486,0.60398 -1.5613,1.34217 -0.6127,0.73819 -0.9126,1.34217 -0.6665,1.34217 0.246,0 0.9486,-0.60398 1.5613,-1.34217 z m 7.1582,-6.26345 c 0.6127,-0.73819 0.9126,-1.34217 0.6665,-1.34217 -0.246,0 -0.9486,0.60398 -1.5613,1.34217 -0.6126,0.73819 -0.9126,1.34217 -0.6665,1.34217 0.2461,0 0.9486,-0.60398 1.5613,-1.34217 z m 19.6851,-19.1766 c 0,-0.24607 -2.2146,1.73968 -4.9213,4.41276 -2.7067,2.67308 -4.9212,5.06147 -4.9212,5.30754 0,0.24606 2.2145,-1.73968 4.9212,-4.41276 2.7067,-2.67308 4.9213,-5.06148 4.9213,-5.30754 z m 3.1317,-2.74547 c 0.8908,-0.98425 1.4183,-1.78955 1.1722,-1.78955 -0.2461,0 -1.1762,0.8053 -2.0669,1.78955 -0.8908,0.98426 -1.4183,1.78956 -1.1722,1.78956 0.2461,0 1.1762,-0.8053 2.0669,-1.78956 z m -17.8955,-68.00315 c 0.8907,-0.98426 1.4182,-1.78956 1.1721,-1.78956 -0.246,0 -1.1761,0.8053 -2.0669,1.78956 -0.8907,0.98426 -1.4182,1.78956 -1.1722,1.78956 0.2461,0 1.1762,-0.8053 2.067,-1.78956 z m 259.5789,275.83406 c -0.2973,-0.29733 -0.5088,0.23115 -0.47,1.17439 0.043,1.04237 0.255,1.25439 0.5406,0.5406 0.2585,-0.64591 0.2268,-1.41767 -0.071,-1.71499 z m -334.2929,0.34373 c 0,-0.16979 -0.906,-1.07575 -2.0133,-2.01325 l -2.0132,-1.70454 1.7045,2.01325 c 1.6019,1.89195 2.322,2.42059 2.322,1.70454 z m -243.8271,-8.63907 c 0.8908,-0.98426 1.4182,-1.78956 1.1722,-1.78956 -0.2461,0 -1.1762,0.8053 -2.067,1.78956 -0.8907,0.98425 -1.4182,1.78955 -1.1721,1.78955 0.246,0 1.1761,-0.8053 2.0669,-1.78955 z m -399.5185,-8.5004 c 0.6126,-0.73819 0.9126,-1.34216 0.6665,-1.34216 -0.2461,0 -0.9486,0.60397 -1.5613,1.34216 -0.6127,0.7382 -0.9126,1.34217 -0.6665,1.34217 0.246,0 0.9486,-0.60397 1.5613,-1.34217 z m 726.3193,-10.91002 c -0.8706,-0.22686 -2.0786,-0.21195 -2.6844,0.0332 -0.6058,0.2451 0.1065,0.43072 1.5829,0.41248 1.4764,-0.0183 1.972,-0.21877 1.1015,-0.44563 z m 8.9478,0 c -0.8707,-0.22686 -2.0786,-0.21195 -2.6844,0.0332 -0.6058,0.2451 0.1065,0.43072 1.5829,0.41248 1.4764,-0.0183 1.972,-0.21877 1.1015,-0.44563 z m -719.1611,-3.40643 c 1.1558,-1.23032 1.9001,-2.23695 1.6541,-2.23695 -0.2461,0 -1.3931,1.00663 -2.5489,2.23695 -1.1558,1.23032 -1.9001,2.23695 -1.6541,2.23695 0.2461,0 1.3931,-1.00663 2.5489,-2.23695 z m 961.5845,-3.35542 c -0.2482,-0.61516 -0.4513,-0.11185 -0.4513,1.11847 0,1.23032 0.2031,1.73364 0.4513,1.11848 0.2482,-0.61516 0.2482,-1.62179 0,-2.23695 z m -886.4231,-1.90369 c 0,-0.1858 -0.7047,-0.89044 -1.5659,-1.56586 -1.4192,-1.11299 -1.4508,-1.08134 -0.3379,0.33783 1.169,1.49047 1.9038,1.96447 1.9038,1.22803 z m 320.0284,-3.46498 c -0.2482,-0.61516 -0.4513,-0.11185 -0.4513,1.11847 0,1.23032 0.2031,1.73364 0.4513,1.11848 0.2483,-0.61516 0.2483,-1.62179 0,-2.23695 z m -573.6048,-2.21831 c -0.2974,-0.29732 -0.5089,0.23116 -0.4701,1.1744 0.043,1.04237 0.255,1.25439 0.5407,0.5406 0.2585,-0.64591 0.2267,-1.41767 -0.071,-1.715 z m 838.7614,-2.30375 c 0,-0.14952 -1.5099,-1.65946 -3.3554,-3.35541 l -3.3554,-3.08356 3.0835,3.35542 c 2.8701,3.12315 3.6273,3.76682 3.6273,3.08355 z M 1523.041,614.14611 c -0.2974,-0.29732 -0.5089,0.23116 -0.4701,1.1744 0.043,1.04237 0.255,1.25439 0.5407,0.5406 0.2585,-0.64591 0.2267,-1.41767 -0.071,-1.715 z m 1190.7835,-10.00898 c -0.5556,-0.55555 -0.9787,0.11645 -1.6426,2.60843 l -0.5958,2.23694 1.3063,-2.23559 c 0.7184,-1.22958 1.1379,-2.40398 0.9321,-2.60978 z m -865.4571,-2.4767 c -0.6459,-0.25847 -1.4177,-0.22669 -1.715,0.0706 -0.2974,0.29733 0.2312,0.50881 1.1744,0.46996 1.0424,-0.043 1.2544,-0.25496 0.5406,-0.54059 z m 387.7186,-1.17832 c 0.8908,-0.98426 1.4183,-1.78956 1.1722,-1.78956 -0.2461,0 -1.1762,0.8053 -2.0669,1.78956 -0.8908,0.98425 -1.4183,1.78955 -1.1722,1.78955 0.2461,0 1.1762,-0.8053 2.0669,-1.78955 z m 368.2013,-1.34217 c 0.6127,-0.73819 0.9126,-1.34217 0.6665,-1.34217 -0.246,0 -0.9486,0.60398 -1.5613,1.34217 -0.6126,0.73819 -0.9125,1.34217 -0.6665,1.34217 0.2461,0 0.9487,-0.60398 1.5613,-1.34217 z m -636.6348,-7.60562 c 0.8908,-0.98425 1.4183,-1.78955 1.1722,-1.78955 -0.2461,0 -1.1762,0.8053 -2.0669,1.78955 -0.8908,0.98426 -1.4183,1.78956 -1.1722,1.78956 0.2461,0 1.1762,-0.8053 2.0669,-1.78956 z m 280.0657,-1.78955 c 0.8907,-0.98426 1.4182,-1.78956 1.1721,-1.78956 -0.2461,0 -1.1762,0.8053 -2.0669,1.78956 -0.8908,0.98425 -1.4182,1.78955 -1.1722,1.78955 0.2461,0 1.1762,-0.8053 2.067,-1.78955 z m 369.9908,-3.46654 c 0,-0.24606 -1.208,0.7099 -2.6843,2.12437 -1.4764,1.41447 -2.6844,2.77308 -2.6844,3.01914 0,0.24607 1.208,-0.7099 2.6844,-2.12436 1.4763,-1.41447 2.6843,-2.77308 2.6843,-3.01915 z m -640.2139,-3.69169 c 0.8908,-0.98426 1.4182,-1.78956 1.1722,-1.78956 -0.2461,0 -1.1762,0.8053 -2.067,1.78956 -0.8907,0.98426 -1.4182,1.78956 -1.1721,1.78956 0.246,0 1.1762,-0.8053 2.0669,-1.78956 z m 294.8295,-16.95279 c 0,-0.24607 -2.8186,2.34956 -6.2635,5.76806 -3.4449,3.4185 -6.2634,6.41678 -6.2634,6.66284 0,0.24607 2.8185,-2.34956 6.2634,-5.76806 3.4449,-3.4185 6.2635,-6.41678 6.2635,-6.66284 z m -284.9869,8.00501 c 0.8907,-0.98426 1.4182,-1.78956 1.1721,-1.78956 -0.246,0 -1.1762,0.8053 -2.0669,1.78956 -0.8908,0.98425 -1.4182,1.78955 -1.1722,1.78955 0.2461,0 1.1762,-0.8053 2.067,-1.78955 z m 9.8425,-8.94779 c 0.8908,-0.98425 1.4182,-1.78955 1.1722,-1.78955 -0.2461,0 -1.1762,0.8053 -2.067,1.78955 -0.8907,0.98426 -1.4182,1.78956 -1.1721,1.78956 0.2461,0 1.1762,-0.8053 2.0669,-1.78956 z m 643.793,-1.34216 c 1.1558,-1.23032 1.9002,-2.23695 1.6541,-2.23695 -0.2461,0 -1.3931,1.00663 -2.5489,2.23695 -1.1557,1.23032 -1.9001,2.23694 -1.654,2.23694 0.246,0 1.393,-1.00662 2.5488,-2.23694 z m -621.8709,-20.08452 c 0,-0.24606 -2.8186,2.34956 -6.2635,5.76806 -3.4449,3.4185 -6.2634,6.41678 -6.2634,6.66285 0,0.24606 2.8185,-2.34957 6.2634,-5.76807 3.4449,-3.4185 6.2635,-6.41678 6.2635,-6.66284 z m 272.5532,8.24734 c -0.2973,-0.29732 -0.5088,0.23116 -0.47,1.1744 0.043,1.04237 0.255,1.25439 0.5406,0.5406 0.2585,-0.64592 0.2268,-1.41767 -0.071,-1.715 z m 0.3542,-3.87425 c 0,-0.52118 -0.4027,-0.69874 -0.8948,-0.39458 -0.4921,0.30415 -0.8948,0.73057 -0.8948,0.94759 0,0.21701 0.4027,0.39457 0.8948,0.39457 0.4921,0 0.8948,-0.42641 0.8948,-0.94758 z m 365.9643,-3.07892 c 0.6127,-0.73819 0.9126,-1.34217 0.6665,-1.34217 -0.246,0 -0.9486,0.60398 -1.5613,1.34217 -0.6126,0.73819 -0.9126,1.34217 -0.6665,1.34217 0.2461,0 0.9487,-0.60398 1.5613,-1.34217 z m -42.0546,-1.78955 c 0.6127,-0.7382 0.9126,-1.34217 0.6666,-1.34217 -0.2461,0 -0.9487,0.60397 -1.5613,1.34217 -0.6127,0.73819 -0.9126,1.34216 -0.6666,1.34216 0.2461,0 0.9487,-0.60397 1.5613,-1.34216 z m -642.0034,-7.60562 c 0.8907,-0.98426 1.4182,-1.78956 1.1721,-1.78956 -0.246,0 -1.1761,0.8053 -2.0669,1.78956 -0.8907,0.98426 -1.4182,1.78956 -1.1721,1.78956 0.246,0 1.1761,-0.8053 2.0669,-1.78956 z m 52.3445,0.44739 c 0.6127,-0.73819 0.9126,-1.34217 0.6665,-1.34217 -0.246,0 -0.9486,0.60398 -1.5613,1.34217 -0.6126,0.73819 -0.9125,1.34217 -0.6665,1.34217 0.2461,0 0.9487,-0.60398 1.5613,-1.34217 z m 600.8437,-3.13173 c 0.8907,-0.98425 1.4182,-1.78955 1.1721,-1.78955 -0.246,0 -1.1762,0.8053 -2.0669,1.78955 -0.8908,0.98426 -1.4182,1.78956 -1.1722,1.78956 0.2461,0 1.1762,-0.8053 2.067,-1.78956 z m -374.4648,-1.34216 c 0.6127,-0.73819 0.9126,-1.34217 0.6666,-1.34217 -0.2461,0 -0.9487,0.60398 -1.5613,1.34217 -0.6127,0.73819 -0.9126,1.34216 -0.6666,1.34216 0.2461,0 0.9487,-0.60397 1.5613,-1.34216 z m -220.1154,-2.68434 c 0.6126,-0.73819 0.9126,-1.34217 0.6665,-1.34217 -0.2461,0 -0.9487,0.60398 -1.5613,1.34217 -0.6127,0.73819 -0.9126,1.34217 -0.6665,1.34217 0.246,0 0.9486,-0.60398 1.5613,-1.34217 z m 639.7665,-0.89478 c 1.1558,-1.23032 1.9001,-2.23694 1.6541,-2.23694 -0.2461,0 -1.3931,1.00662 -2.5489,2.23694 -1.1558,1.23032 -1.9002,2.23695 -1.6541,2.23695 0.2461,0 1.3931,-1.00663 2.5489,-2.23695 z m -411.5981,-3.57911 c 0.6127,-0.73819 0.9126,-1.34217 0.6666,-1.34217 -0.2461,0 -0.9487,0.60398 -1.5613,1.34217 -0.6127,0.73819 -0.9126,1.34217 -0.6666,1.34217 0.2461,0 0.9487,-0.60398 1.5613,-1.34217 z M 1987.7851,522.189 c 1.1557,-1.23032 1.9001,-2.23694 1.654,-2.23694 -0.246,0 -1.393,1.00662 -2.5488,2.23694 -1.1558,1.23032 -1.9002,2.23695 -1.6541,2.23695 0.2461,0 1.3931,-1.00663 2.5489,-2.23695 z m 656.7672,-6.64356 c 0,-0.24607 -2.0132,1.53559 -4.4739,3.95923 -2.4606,2.42364 -4.4738,4.60795 -4.4738,4.85401 0,0.24606 2.0132,-1.53559 4.4738,-3.95923 2.4607,-2.42364 4.4739,-4.60795 4.4739,-4.85401 z m -223.6945,2.16967 c 0.6126,-0.73819 0.9125,-1.34216 0.6665,-1.34216 -0.2461,0 -0.9487,0.60397 -1.5613,1.34216 -0.6127,0.73819 -0.9126,1.34217 -0.6665,1.34217 0.246,0 0.9486,-0.60398 1.5613,-1.34217 z m -149.8754,-3.13172 c 0.8907,-0.98426 1.4182,-1.78956 1.1721,-1.78956 -0.246,0 -1.1761,0.8053 -2.0669,1.78956 -0.8907,0.98425 -1.4182,1.78956 -1.1721,1.78956 0.246,0 1.1761,-0.80531 2.0669,-1.78956 z m 157.0336,-3.13173 c 0.6126,-0.73819 0.9126,-1.34216 0.6665,-1.34216 -0.2461,0 -0.9486,0.60397 -1.5613,1.34216 -0.6126,0.7382 -0.9126,1.34217 -0.6665,1.34217 0.2461,0 0.9486,-0.60397 1.5613,-1.34217 z m 7.1582,-6.26344 c 0.6127,-0.7382 0.9126,-1.34217 0.6665,-1.34217 -0.246,0 -0.9486,0.60397 -1.5613,1.34217 -0.6126,0.73819 -0.9126,1.34216 -0.6665,1.34216 0.2461,0 0.9487,-0.60397 1.5613,-1.34216 z m -144.5067,-9.39518 c 5.3966,-5.4134 9.6107,-9.84256 9.3647,-9.84256 -0.2461,0 -4.8629,4.42916 -10.2595,9.84256 -5.3966,5.41341 -9.6107,9.84257 -9.3646,9.84257 0.246,0 4.8628,-4.42916 10.2594,-9.84257 z m 546.7096,0.89478 c 0.8907,-0.98425 1.4182,-1.78955 1.1721,-1.78955 -0.246,0 -1.1762,0.8053 -2.0669,1.78955 -0.8908,0.98426 -1.4182,1.78956 -1.1722,1.78956 0.2461,0 1.1762,-0.8053 2.067,-1.78956 z m -379.8334,-13.33747 c 0,-0.24607 -1.6106,1.12532 -3.5791,3.04752 -1.9686,1.9222 -3.5792,3.69624 -3.5792,3.94231 0,0.24606 1.6106,-1.12533 3.5792,-3.04753 1.9685,-1.9222 3.5791,-3.69624 3.5791,-3.9423 z m 221.5508,-0.73665 c -0.2973,-0.29732 -0.5088,0.23116 -0.47,1.1744 0.043,1.04237 0.255,1.25439 0.5406,0.5406 0.2585,-0.64593 0.2268,-1.41767 -0.071,-1.715 z m -603.9753,-14.31645 c -0.2974,-0.29733 -0.5089,0.23116 -0.4701,1.1744 0.043,1.04237 0.2551,1.25439 0.5407,0.54059 0.2585,-0.64592 0.2267,-1.41767 -0.071,-1.71499 z m 891.777,-8.88793 c -0.6151,-0.24822 -1.6218,-0.24822 -2.2369,0 -0.6152,0.24822 -0.1119,0.45131 1.1185,0.45131 1.2303,0 1.7336,-0.20309 1.1184,-0.45131 z m -882.9225,-2.09174 c 0.8908,-0.98426 1.4182,-1.78956 1.1722,-1.78956 -0.2461,0 -1.1762,0.8053 -2.067,1.78956 -0.8907,0.98425 -1.4182,1.78955 -1.1721,1.78955 0.246,0 1.1762,-0.8053 2.0669,-1.78955 z m 863.2374,1.19696 c -0.6152,-0.24822 -1.6218,-0.24822 -2.2369,0 -0.6152,0.24822 -0.1119,0.45132 1.1184,0.45132 1.2304,0 1.7337,-0.2031 1.1185,-0.45132 z m -855.6318,-7.9078 c 0.6127,-0.73819 0.9126,-1.34217 0.6666,-1.34217 -0.2461,0 -0.9487,0.60398 -1.5613,1.34217 -0.6127,0.73819 -0.9126,1.34217 -0.6666,1.34217 0.2461,0 0.9487,-0.60398 1.5613,-1.34217 z m -489.4437,-2.68434 c 0.6127,-0.73819 0.9126,-1.34216 0.6665,-1.34216 -0.246,0 -0.9486,0.60397 -1.5613,1.34216 -0.6126,0.7382 -0.9126,1.34217 -0.6665,1.34217 0.2461,0 0.9486,-0.60397 1.5613,-1.34217 z m 505.1024,-11.18473 c 0.8907,-0.98425 1.4182,-1.78955 1.1721,-1.78955 -0.246,0 -1.1762,0.8053 -2.0669,1.78955 -0.8908,0.98426 -1.4182,1.78956 -1.1722,1.78956 0.2461,0 1.1762,-0.8053 2.067,-1.78956 z m -296.9212,-12.75059 c -0.2482,-0.61516 -0.4513,-0.11184 -0.4513,1.11848 0,1.23032 0.2031,1.73363 0.4513,1.11847 0.2482,-0.61516 0.2482,-1.62179 0,-2.23695 z m 931.4642,0 c -0.2482,-0.61516 -0.4513,-0.11184 -0.4513,1.11848 0,1.23032 0.2031,1.73363 0.4513,1.11847 0.2482,-0.61516 0.2482,-1.62179 0,-2.23695 z m -5.0665,-26.03358 c 0,-0.16979 -0.906,-1.07576 -2.0132,-2.01325 l -2.0133,-1.70455 1.7046,2.01326 c 1.6018,1.89195 2.3219,2.42059 2.3219,1.70454 z m -944.8859,-15.21123 c 0,-0.16979 -0.906,-1.07576 -2.0132,-2.01325 l -2.0133,-1.70455 1.7046,2.01325 c 1.6018,1.89196 2.3219,2.42059 2.3219,1.70455 z m 280.0656,-7.29691 c 2.1734,-2.21458 3.7504,-4.0265 3.5043,-4.0265 -0.246,0 -2.2256,1.81192 -4.3991,4.0265 -2.1734,2.21458 -3.7503,4.0265 -3.5043,4.0265 0.2461,0 2.2257,-1.81192 4.3991,-4.0265 z m -321.9524,-5.53251 c -0.6459,-0.25848 -1.4177,-0.22669 -1.715,0.0706 -0.2974,0.29732 0.2312,0.5088 1.1744,0.46995 1.0424,-0.043 1.2544,-0.25496 0.5406,-0.54059 z m 378.3234,-4.17137 c 0,-0.16979 -0.9059,-1.07576 -2.0132,-2.01325 l -2.0133,-1.70454 1.7046,2.01325 c 1.6018,1.89195 2.3219,2.42059 2.3219,1.70454 z m 2040.9894,382.67445 c -6.3128,-1.00372 -15.6553,-5.22586 -19.2718,-8.70942 -7.024,-6.76561 -7.6819,-17.33654 -1.5556,-24.99511 3.1724,-3.96593 18.5484,-17.7698 27.4115,-24.60878 4.991,-3.85116 27.7977,-19.39287 50.6817,-34.53713 52.7942,-34.93842 67.8479,-46.62733 88.2427,-68.51874 22.0688,-23.68844 31.8555,-39.68033 37.3968,-61.10815 2.6737,-10.33893 4.4104,-26.25723 3.6308,-33.27728 -3.0343,-27.32191 -17.3075,-55.7218 -31.2921,-62.26319 -8.7121,-4.07515 -24.2936,-0.42502 -40.9924,9.60286 -18.6709,11.21224 -48.0012,38.55042 -71.0651,66.23855 -11.0136,13.22175 -31.7808,41.01746 -40.9971,54.87232 -15.5236,23.33665 -27.1355,51.26166 -32.2378,77.5273 -0.751,3.86609 -1.9002,16.09288 -2.5538,27.17066 -1.0285,17.4334 -1.4567,20.7124 -3.1846,24.38829 -2.3748,5.05233 -5.8582,8.18547 -12.5312,11.2716 -6.7317,3.11323 -17.846,3.17258 -24.8639,0.1328 -12.1869,-5.27882 -18.103,-20.47936 -18.072,-46.43244 0.017,-13.84927 3.1752,-92.94774 4.4666,-111.85329 0.5172,-7.57272 0.8112,-13.89786 0.6532,-14.05586 -0.1581,-0.15801 -4.3465,4.62858 -9.3077,10.63686 -13.5031,16.35284 -31.7112,35.6599 -47.5022,50.36918 -82.0263,76.40729 -158.0871,112.94146 -224.4855,107.82685 -31.6984,-2.44169 -54.7,-12.13953 -72.1744,-30.42973 -17.6528,-18.47703 -26.7804,-40.89414 -30.2369,-74.26089 -1.3599,-13.1275 -0.5801,-48.56106 1.3996,-63.60857 7.7232,-58.69791 27.1164,-104.84684 62.7523,-149.32788 22.0559,-27.53048 50.6945,-45.47483 79.2706,-49.66946 16.2437,-2.38437 36.3013,2.91571 44.7669,11.82937 9.4378,9.9372 17.8386,24.32896 20.9851,35.95043 1.9239,7.1058 2.1689,28.09176 0.4232,36.23853 -3.5997,16.79839 -11.8512,34.30605 -23.6163,50.10758 -8.8881,11.93736 -28.7563,32.44384 -46.3138,47.80155 -30.6142,26.77855 -57.682,48.41203 -75.0959,60.01924 l -10.068,6.71084 0.4703,7.60561 c 1.6946,27.39775 19.2251,46.81596 48.2957,53.49616 9.1707,2.10735 36.5366,2.05151 47.5826,-0.0971 55.1968,-10.73656 115.2106,-46.3383 182.9822,-108.54981 7.628,-7.00218 22.8587,-21.51615 33.846,-32.25325 l 19.977,-19.52202 3.01,-28.6329 c 5.7489,-54.6854 17.3853,-146.16285 22.4227,-176.27133 9.0462,-54.06971 20.3097,-90.81888 30.6095,-99.86948 2.8688,-2.52085 3.1806,-2.58259 13.0386,-2.58259 13.0259,0 17.0726,1.31317 22.4391,7.28197 5.8744,6.53376 7.7989,12.41371 8.3063,25.37743 0.4177,10.67265 0.3872,10.87738 -5.0648,34.00158 -14.7719,62.65321 -26.581,122.43866 -32.1668,162.84961 -5.9953,43.3747 -10.6595,90.69675 -12.1702,123.47941 l -0.5361,11.63212 2.2995,-3.57912 c 1.2647,-1.96851 6.9357,-11.63212 12.6022,-21.47468 15.327,-26.62291 24.4415,-38.75116 47.521,-63.23446 32.5791,-34.5606 66.5297,-58.64921 93.6718,-66.46185 15.5931,-4.48835 35.7488,-4.52009 48.8064,-0.0769 31.896,10.85341 58.6417,43.63497 66.8224,81.90256 2.2116,10.34566 2.2296,27.42502 0.039,37.58069 -2.2233,10.31044 -9.848,35.47346 -13.158,43.42429 -1.4822,3.56037 -4.0029,8.63454 -5.6016,11.27593 l -2.9069,4.80254 10.3286,-6.82208 c 12.0799,-7.97883 62.1533,-39.58502 82.8056,-52.26661 7.874,-4.83509 26.9792,-17.0114 42.456,-27.05848 40.6725,-26.40327 46.992,-30.13335 51.0528,-30.13335 1.8588,0 4.4646,0.58059 5.7905,1.2902 4.0118,2.14706 4.7837,4.84564 4.788,16.7384 l 0,10.85859 -3.2802,5.55054 c -13.6575,23.11015 -64.8374,57.60358 -202.8158,136.69059 -68.8866,39.48468 -63.5467,35.7317 -95.7413,67.28896 -19.1369,18.75804 -33.3905,31.29529 -51.0023,44.86069 -15.6582,12.06061 -22.5098,15.73634 -34.8964,18.72114 -6.6874,1.61148 -20.651,2.19379 -27.2907,1.13809 z m 25.3721,-5.25344 c 12.0497,-3.02223 19.0433,-6.71454 32.7885,-17.31089 21.086,-16.25546 32.3076,-26.17457 56.8184,-50.22359 10.8268,-10.62279 21.4971,-20.75544 23.7116,-22.51698 5.9735,-4.75145 22.9262,-14.92033 65.3188,-39.18066 43.0239,-24.62155 75.1903,-43.47931 102.0048,-59.80091 25.8394,-15.72809 65.8251,-42.44375 76.9814,-51.43357 12.1848,-9.81852 22.9675,-21.25448 26.3338,-27.92917 4.7481,-9.41436 3.878,-20.54952 -1.9018,-24.33654 -2.3236,-1.52251 -2.4909,-1.48985 -8.29,1.61813 -3.2552,1.7446 -15.7753,9.53613 -27.8226,17.31451 -36.8479,23.79109 -49.4528,31.79888 -78.2751,49.72759 -15.256,9.48986 -39.2766,24.63883 -53.3791,33.66437 -14.1025,9.02555 -26.484,16.41009 -27.5144,16.41009 -2.8231,0 -2.3383,-2.29471 2.142,-10.13825 7.536,-13.19299 11.9633,-24.6925 17.8499,-46.36353 4.8504,-17.85627 5.8215,-27.6768 4.0184,-40.64043 -3.1709,-22.79776 -15.2453,-46.93926 -31.7132,-63.40717 -19.2533,-19.25328 -39.9298,-27.25453 -63.6075,-24.61432 -10.6566,1.18828 -21.0462,4.13913 -31.3752,8.91113 -27.1961,12.56462 -63.6508,43.28681 -93.4635,78.7662 -11.2017,13.33102 -19.6451,25.82698 -32.3152,47.82617 -15.883,27.57774 -17.9487,30.80287 -19.7518,30.83814 -1.387,0.0271 -1.5529,-0.51659 -1.1506,-3.7711 0.2585,-2.09154 0.7109,-10.24521 1.0053,-18.11926 0.591,-15.80836 2.1734,-36.74102 4.9378,-65.31881 6.749,-69.76832 16.9237,-127.93022 38.8476,-222.06568 4.8878,-20.98703 5.8513,-26.43695 5.8513,-33.09732 0,-15.77145 -4.6235,-25.57115 -13.8916,-29.44357 -4.6009,-1.92243 -20.152,-2.20196 -22.3217,-0.40131 -2.9278,2.42986 -8.7744,13.60877 -12.1925,23.31246 -11.5755,32.86271 -19.6071,79.65978 -33.3959,194.58704 -10.2218,85.19691 -13.4161,124.20082 -16.6343,203.11468 -1.9625,48.12206 -2.1693,64.6626 -0.9051,72.38295 3.2564,19.88454 10.4335,27.83386 25.0745,27.77218 7.429,-0.0313 12.8951,-1.98006 17.2163,-6.13787 5.1958,-4.9994 5.5071,-6.46786 6.9449,-32.7591 0.9451,-17.28302 2.2685,-25.56864 6.3684,-39.87064 5.5018,-19.1924 15.5354,-41.5561 26.055,-58.07343 11.262,-17.68312 34.6022,-48.50879 52.2349,-68.98705 16.394,-19.0399 42.7727,-43.4537 57.6374,-53.34438 16.396,-10.90949 28.1315,-15.35827 40.6842,-15.42294 6.9823,-0.036 8.6479,0.26839 12.5269,2.28905 9.2357,4.81102 21.0846,22.72678 26.8639,40.61882 4.014,12.42694 5.1325,19.07293 5.1196,30.42246 -0.046,40.71853 -18.7869,74.02266 -63.7481,113.28731 -13.9439,12.17723 -28.4236,22.55646 -64.7739,46.43062 -20.6058,13.53352 -42.9737,28.72428 -49.7063,33.75725 -14.3814,10.75082 -30.2259,25.38091 -31.9459,29.49724 -4.0105,9.59844 2.5639,18.30545 16.6868,22.09996 6.569,1.76494 21.1312,1.79615 28.0529,0.0601 z m -32.5303,-38.77352 c 0,-0.24606 -1.208,0.7099 -2.6844,2.12437 -1.4764,1.41446 -2.6843,2.77308 -2.6843,3.01914 0,0.24606 1.2079,-0.7099 2.6843,-2.12436 1.4764,-1.41447 2.6844,-2.77308 2.6844,-3.01915 z m -69.7927,-7.60864 c 0,-0.1858 -0.7047,-0.89044 -1.5659,-1.56586 -1.4192,-1.11299 -1.4508,-1.08134 -0.3379,0.33783 1.169,1.49048 1.9038,1.96447 1.9038,1.22803 z m -259.4518,-3.64383 c 18.2002,-2.30224 29.5851,-5.08454 47.8939,-11.70461 62.6211,-22.64231 138.8984,-81.86496 195.8919,-152.09294 l 7.1509,-8.8114 1.366,-16.79491 1.3661,-16.79492 -17.9121,17.63183 c -77.5748,76.36085 -136.5725,117.01848 -195.5256,134.74419 -41.8481,12.58266 -79.6291,9.54912 -101.5574,-8.15433 -13.6298,-11.0038 -21.9972,-29.51743 -21.8874,-48.42789 l 0.035,-5.96104 10.024,-6.71084 c 27.4091,-18.34974 80.6559,-62.76152 103.1022,-85.99487 28.1081,-29.09379 41.5293,-54.69916 43.098,-82.22345 1.1299,-19.82689 -3.7624,-33.99011 -17.8322,-51.62393 -5.7541,-7.21173 -11.8813,-10.92591 -22.7538,-13.79296 -21.226,-5.59719 -48.3493,2.78142 -74.1022,22.89081 -18.8404,14.71166 -40.6188,43.01246 -56.5029,73.42499 -16.0081,30.65005 -26.0927,65.94676 -30.3708,106.30068 -1.8434,17.38712 -1.3171,54.06668 0.952,66.36248 4.9114,26.61299 13.0896,43.9937 27.7631,59.00332 8.2659,8.4552 14.4236,12.99926 24.6064,18.15838 19.1941,9.72458 48.8881,13.89916 75.1954,10.57141 z m -82.6308,-161.2769 c -0.6286,-1.0173 3.9866,-24.06518 7.7611,-38.75701 5.1332,-19.98099 8.3126,-28.70199 16.2089,-44.46201 22.1337,-44.17599 45.6509,-68.2846 66.5963,-68.27059 11.0763,0.007 17.8493,9.19789 19.4014,26.32629 0.8998,9.93029 -0.7195,17.27696 -6.3258,28.69923 -6.4287,13.09785 -13.998,22.84858 -29.824,38.41933 -15.903,15.64649 -25.5102,23.71943 -51.2419,43.0586 -20.2655,15.23095 -21.7965,16.24728 -22.576,14.98616 z m 25.7784,-23.28593 c 28.3285,-21.29143 52.9628,-44.05511 64.667,-59.75649 9.158,-12.28581 15.4381,-27.59956 15.3971,-37.54499 -0.046,-11.01141 -4.5565,-22.36558 -10.0052,-25.18317 -7.2637,-3.75622 -19.8862,1.09723 -31.4044,12.07513 -11.2441,10.71683 -18.9451,20.97405 -28.9606,38.57352 -14.7562,25.92981 -21.4547,45.07421 -29.4231,84.09161 -0.5252,2.57127 -0.4207,2.94685 0.5988,2.15434 0.6792,-0.52791 9.2879,-7.01239 19.1304,-14.40995 z m 40.7124,-30.2288 c 2.1734,-2.21458 3.7504,-4.02651 3.5043,-4.02651 -0.246,0 -2.2256,1.81193 -4.399,4.02651 -2.1735,2.21457 -3.7504,4.0265 -3.5044,4.0265 0.2461,0 2.2257,-1.81193 4.3991,-4.0265 z m 16.5534,-16.5534 c 0.8908,-0.98426 1.4183,-1.78956 1.1722,-1.78956 -0.2461,0 -1.1762,0.8053 -2.0669,1.78956 -0.8908,0.98425 -1.4183,1.78955 -1.1722,1.78955 0.2461,0 1.1762,-0.8053 2.0669,-1.78955 z m 25.2212,-52.57866 c -0.2239,-0.85549 -0.399,0.0552 -0.3891,2.02368 0.01,1.96852 0.1932,2.66846 0.4072,1.55543 0.214,-1.11302 0.2059,-2.72362 -0.018,-3.57911 z m 419.0363,276.35744 c 0,-0.24607 -1.6106,1.12532 -3.5791,3.04752 -1.9686,1.9222 -3.5792,3.69624 -3.5792,3.9423 0,0.24607 1.6106,-1.12532 3.5792,-3.04752 1.9685,-1.9222 3.5791,-3.69624 3.5791,-3.9423 z m -143.4667,-11.04524 c -0.2482,-0.61516 -0.4514,-0.11184 -0.4514,1.11848 0,1.23032 0.2032,1.73363 0.4514,1.11847 0.2482,-0.61516 0.2482,-1.62179 0,-2.23695 z m -397.8742,-3.64684 c 0,-0.16027 -1.1073,-1.26756 -2.4607,-2.46064 l -2.4606,-2.16922 2.1692,2.46064 c 2.0275,2.29984 2.7521,2.87098 2.7521,2.16922 z m 344.1817,-11.58142 c -0.245,-0.60579 -0.4306,0.10651 -0.4125,1.58289 0.018,1.47639 0.2188,1.97204 0.4457,1.10145 0.2269,-0.87059 0.212,-2.07854 -0.033,-2.68434 z m 54.5353,-3.09605 c -0.2974,-0.29733 -0.5089,0.23115 -0.4701,1.17439 0.043,1.04237 0.255,1.25439 0.5407,0.5406 0.2585,-0.64591 0.2267,-1.41767 -0.071,-1.71499 z m 172.5989,0.65244 c 0.8908,-0.98426 1.4183,-1.78956 1.1722,-1.78956 -0.2461,0 -1.1762,0.8053 -2.0669,1.78956 -0.8908,0.98426 -1.4183,1.78956 -1.1722,1.78956 0.2461,0 1.1762,-0.8053 2.0669,-1.78956 z m -227.1342,-10.97806 c -0.245,-0.60579 -0.4306,0.1065 -0.4125,1.58289 0.018,1.47638 0.2188,1.97204 0.4457,1.10144 0.2269,-0.87059 0.212,-2.07854 -0.033,-2.68433 z m -258.5237,-1.27413 c -0.8706,-0.22686 -2.0786,-0.21195 -2.6843,0.0332 -0.6059,0.2451 0.1065,0.43072 1.5828,0.41248 1.4764,-0.0183 1.972,-0.21877 1.1015,-0.44563 z m 8.053,0 c -0.8706,-0.22686 -2.0786,-0.21195 -2.6843,0.0332 -0.6059,0.2451 0.1065,0.43072 1.5828,0.41248 1.4764,-0.0183 1.972,-0.21877 1.1015,-0.44563 z m -60.6042,-18.5081 c 0,-0.18581 -0.7047,-0.89044 -1.5659,-1.56587 -1.4192,-1.11298 -1.4508,-1.08134 -0.3378,0.33784 1.1689,1.49047 1.9037,1.96446 1.9037,1.22803 z m 311.9754,-5.25454 c -0.2482,-0.61516 -0.4513,-0.11184 -0.4513,1.11848 0,1.23032 0.2031,1.73363 0.4513,1.11847 0.2483,-0.61516 0.2483,-1.62179 0,-2.23695 z m 210.5751,-8.2767 c 0.6127,-0.73819 0.9126,-1.34216 0.6665,-1.34216 -0.246,0 -0.9486,0.60397 -1.5613,1.34216 -0.6126,0.7382 -0.9125,1.34217 -0.6665,1.34217 0.2461,0 0.9487,-0.60397 1.5613,-1.34217 z m 8.053,-7.15822 c 0.6127,-0.73819 0.9126,-1.34217 0.6665,-1.34217 -0.246,0 -0.9486,0.60398 -1.5613,1.34217 -0.6126,0.73819 -0.9125,1.34217 -0.6665,1.34217 0.2461,0 0.9487,-0.60398 1.5613,-1.34217 z m -288.1186,-4.47389 c 0.6127,-0.7382 0.9126,-1.34217 0.6665,-1.34217 -0.246,0 -0.9486,0.60397 -1.5613,1.34217 -0.6126,0.73819 -0.9126,1.34216 -0.6665,1.34216 0.2461,0 0.9487,-0.60397 1.5613,-1.34216 z m 70.3796,-3.37245 c -0.2451,-0.60579 -0.4307,0.10651 -0.4125,1.58289 0.018,1.47638 0.2188,1.97204 0.4457,1.10144 0.2268,-0.87059 0.212,-2.07854 -0.033,-2.68433 z m -60.9844,-5.12795 c 0.8907,-0.98425 1.4182,-1.78955 1.1721,-1.78955 -0.246,0 -1.1761,0.8053 -2.0669,1.78955 -0.8908,0.98426 -1.4182,1.78956 -1.1722,1.78956 0.2461,0 1.1762,-0.8053 2.067,-1.78956 z m -320.1912,-10.97806 c -0.245,-0.60579 -0.4306,0.10651 -0.4125,1.58289 0.018,1.47638 0.2188,1.97204 0.4457,1.10145 0.2269,-0.8706 0.212,-2.07855 -0.033,-2.68434 z m 382.0761,-6.24642 c -0.2482,-0.61516 -0.4513,-0.11185 -0.4513,1.11847 0,1.23032 0.2031,1.73364 0.4513,1.11848 0.2482,-0.61516 0.2482,-1.62179 0,-2.23695 z m -29.2255,-15.43493 c 1.1558,-1.23032 1.9001,-2.23694 1.6541,-2.23694 -0.2461,0 -1.3931,1.00662 -2.5489,2.23694 -1.1558,1.23032 -1.9001,2.23695 -1.6541,2.23695 0.2461,0 1.3931,-1.00663 2.5489,-2.23695 z m -352.8968,-4.67894 c -0.2974,-0.29733 -0.5089,0.23115 -0.4701,1.17439 0.043,1.04237 0.2551,1.25439 0.5407,0.5406 0.2585,-0.64591 0.2267,-1.41767 -0.071,-1.71499 z m 322.4743,-10.53229 c 0.6127,-0.73819 0.9126,-1.34217 0.6665,-1.34217 -0.246,0 -0.9486,0.60398 -1.5613,1.34217 -0.6126,0.73819 -0.9125,1.34217 -0.6665,1.34217 0.2461,0 0.9487,-0.60398 1.5613,-1.34217 z m 112.1709,-0.89478 c 0.2833,-0.73819 0.1251,-1.34216 -0.3517,-1.34216 -0.4766,0 -0.8667,0.60397 -0.8667,1.34216 0,0.7382 0.1583,1.34217 0.3517,1.34217 0.1934,0 0.5834,-0.60397 0.8667,-1.34217 z m -101.8809,-8.50039 c 0.8907,-0.98426 1.4182,-1.78956 1.1721,-1.78956 -0.246,0 -1.1762,0.8053 -2.0669,1.78956 -0.8908,0.98426 -1.4182,1.78956 -1.1722,1.78956 0.2461,0 1.1762,-0.8053 2.067,-1.78956 z m 101.2032,-0.65245 c -0.2974,-0.29732 -0.5089,0.23116 -0.4701,1.1744 0.043,1.04237 0.255,1.25439 0.5407,0.5406 0.2585,-0.64591 0.2267,-1.41767 -0.071,-1.715 z m -90.4659,-9.19011 c 0.8908,-0.98426 1.4182,-1.78956 1.1722,-1.78956 -0.2461,0 -1.1762,0.8053 -2.067,1.78956 -0.8907,0.98425 -1.4182,1.78955 -1.1721,1.78955 0.246,0 1.1762,-0.8053 2.0669,-1.78955 z m 91.4126,-10.06626 c -0.2482,-0.61516 -0.4513,-0.11185 -0.4513,1.11848 0,1.23032 0.2031,1.73363 0.4513,1.11847 0.2482,-0.61516 0.2482,-1.62179 0,-2.23695 z m -300.3433,-2.01325 c 0.6126,-0.73819 0.9126,-1.34217 0.6665,-1.34217 -0.2461,0 -0.9486,0.60398 -1.5613,1.34217 -0.6127,0.73819 -0.9126,1.34217 -0.6665,1.34217 0.246,0 0.9486,-0.60398 1.5613,-1.34217 z m 7.1582,-6.26345 c 0.6127,-0.73819 0.9126,-1.34216 0.6665,-1.34216 -0.246,0 -0.9486,0.60397 -1.5613,1.34216 -0.6126,0.73819 -0.9126,1.34217 -0.6665,1.34217 0.2461,0 0.9486,-0.60398 1.5613,-1.34217 z m 244.2745,-23.67965 c 0,-0.24607 -4.2278,3.76605 -9.3952,8.91581 -5.1673,5.14976 -9.3952,9.56453 -9.3952,9.81059 0,0.24607 4.2279,-3.76605 9.3952,-8.91581 5.1674,-5.14976 9.3952,-9.56453 9.3952,-9.81059 z m 476.022,13.83709 c 0.6127,-0.73819 0.9126,-1.34217 0.6666,-1.34217 -0.2461,0 -0.9487,0.60398 -1.5613,1.34217 -0.6127,0.73819 -0.9126,1.34217 -0.6666,1.34217 0.2461,0 0.9487,-0.60398 1.5613,-1.34217 z m -701.5062,-8.43312 c 0,-0.24607 -2.0132,1.53559 -4.4738,3.95923 -2.4607,2.42364 -4.4739,4.60795 -4.4739,4.85401 0,0.24607 2.0132,-1.53559 4.4739,-3.95923 2.4606,-2.42364 4.4738,-4.60795 4.4738,-4.85401 z m 712.691,-2.75161 c 0.8907,-0.98425 1.4182,-1.78955 1.1721,-1.78955 -0.246,0 -1.1761,0.8053 -2.0669,1.78955 -0.8908,0.98426 -1.4182,1.78956 -1.1722,1.78956 0.2461,0 1.1762,-0.8053 2.067,-1.78956 z m -705.9801,-3.57911 c 0.8907,-0.98426 1.4182,-1.78956 1.1721,-1.78956 -0.246,0 -1.1761,0.8053 -2.0669,1.78956 -0.8907,0.98426 -1.4182,1.78956 -1.1722,1.78956 0.2461,0 1.1762,-0.8053 2.067,-1.78956 z m 316.3041,-12.97429 c 0.6127,-0.73819 0.9126,-1.34216 0.6665,-1.34216 -0.246,0 -0.9486,0.60397 -1.5613,1.34216 -0.6126,0.7382 -0.9125,1.34217 -0.6665,1.34217 0.2461,0 0.9487,-0.60397 1.5613,-1.34217 z m 65.3188,-5.36867 c 0.6127,-0.73819 0.9126,-1.34216 0.6666,-1.34216 -0.2461,0 -0.9487,0.60397 -1.5613,1.34216 -0.6127,0.7382 -0.9126,1.34217 -0.6666,1.34217 0.2461,0 0.9487,-0.60397 1.5613,-1.34217 z m -58.1606,-2.68433 c 0.6127,-0.73819 0.9126,-1.34217 0.6666,-1.34217 -0.2461,0 -0.9487,0.60398 -1.5613,1.34217 -0.6127,0.73819 -0.9126,1.34217 -0.6666,1.34217 0.2461,0 0.9487,-0.60398 1.5613,-1.34217 z m 7.1583,-8.05301 c 0.6126,-0.73819 0.9126,-1.34216 0.6665,-1.34216 -0.2461,0 -0.9486,0.60397 -1.5613,1.34216 -0.6127,0.7382 -0.9126,1.34217 -0.6665,1.34217 0.246,0 0.9486,-0.60397 1.5613,-1.34217 z m 28.6329,-27.73812 c 0.6126,-0.7382 0.9126,-1.34217 0.6665,-1.34217 -0.2461,0 -0.9486,0.60397 -1.5613,1.34217 -0.6127,0.73819 -0.9126,1.34216 -0.6665,1.34216 0.246,0 0.9486,-0.60397 1.5613,-1.34216 z m 90.5963,0.74957 c -0.6152,-0.24822 -1.6218,-0.24822 -2.237,0 -0.6151,0.24822 -0.1118,0.45132 1.1185,0.45132 1.2303,0 1.7336,-0.2031 1.1185,-0.45132 z m 58.8317,-18.53558 c 0,-0.1858 -0.7047,-0.89044 -1.5659,-1.56587 -1.4192,-1.11298 -1.4508,-1.08134 -0.3379,0.33784 1.169,1.49047 1.9038,1.96446 1.9038,1.22803 z m -468.277,-11.53501 c -0.2451,-0.60579 -0.4307,0.1065 -0.4125,1.58289 0.018,1.47638 0.2188,1.97204 0.4457,1.10144 0.2268,-0.87059 0.212,-2.07854 -0.033,-2.68433 z m -124.9611,-33.31347 c 0.6127,-0.73819 0.9126,-1.34216 0.6666,-1.34216 -0.2461,0 -0.9487,0.60397 -1.5613,1.34216 -0.6127,0.7382 -0.9126,1.34217 -0.6666,1.34217 0.2461,0 0.9487,-0.60397 1.5613,-1.34217 z m 103.7943,-17.75688 c 0,-0.16979 -0.9059,-1.07576 -2.0132,-2.01325 l -2.0133,-1.70455 1.7046,2.01326 c 1.6018,1.89195 2.3219,2.42059 2.3219,1.70454 z M 4144.2008,177.6994 c 0.6127,-0.7382 0.9126,-1.34217 0.6665,-1.34217 -0.246,0 -0.9486,0.60397 -1.5613,1.34217 -0.6126,0.73819 -0.9126,1.34216 -0.6665,1.34216 0.2461,0 0.9486,-0.60397 1.5613,-1.34216 z M 3135.0948,740.946 c -18.214,-2.65573 -34.7779,-23.64598 -47.5252,-60.22527 -15.2885,-43.87168 -49.2593,-180.60363 -73.9554,-297.66975 -3.7893,-17.96268 -9.6841,-42.92699 -13.0995,-55.47626 -11.3867,-41.83926 -14.1856,-54.9436 -14.3442,-67.15924 -0.076,-5.82 0.2964,-7.75988 2.2562,-11.76562 4.46,-9.11582 15.4435,-17.68019 22.7028,-17.70247 4.4985,-0.0134 7.2046,1.42851 12.3683,6.59219 10.1081,10.10813 22.3249,32.63713 29.4148,54.24401 5.7871,17.636 22.3546,85.83728 54.2317,223.24719 14.3997,62.07126 32.1384,129.28782 34.1211,129.29378 0.3072,9e-4 11.4255,-18.41956 24.7074,-40.93442 67.8624,-115.03802 73.2361,-125.16035 105.8121,-199.31187 10.3776,-23.62215 19.9549,-44.51866 21.2829,-46.43669 3.1113,-4.49366 10.4823,-10.04122 16.257,-12.23544 10.2225,-3.88424 16.7233,-1.32076 25.0171,9.86518 9.1552,12.34761 13.9695,22.87289 64.48,140.96911 13.8922,32.48046 28.8841,67.10838 33.3155,76.95094 8.1047,18.00122 21.8982,45.95464 24.2432,49.13057 1.1656,1.57854 1.7333,0.86987 7.5261,-9.39518 39.1406,-69.35799 71.3879,-153.22736 95.0966,-247.32911 15.5108,-61.56338 25.7308,-123.92787 28.2262,-172.23963 0.7118,-13.78013 2.4672,-18.14127 10.1746,-25.27695 7.3558,-6.81016 10.7695,-8.31339 18.4301,-8.11546 10.9737,0.28355 17.5403,4.65088 22.475,14.94772 4.6739,9.75281 6.0665,17.68395 5.4305,30.92693 -2.396,49.88989 -24.8002,159.67949 -45.931,225.08136 -19.3641,59.93341 -32.035,91.87148 -71.8852,181.19261 -12.1857,27.3131 -25.0685,56.50525 -28.6285,64.87142 -8.0354,18.884 -9.0349,20.52502 -14.6911,24.12111 -10.9146,6.93918 -21.7876,8.99819 -31.5338,5.9715 -15.6951,-4.87412 -28.2838,-19.77979 -45.4409,-53.80423 -9.1819,-18.20899 -12.8193,-26.37367 -47.0374,-105.58384 -27.9276,-64.64834 -43.8416,-100.21518 -44.8403,-100.21518 -1.5826,0 -27.9794,47.57673 -53.1197,95.74128 -71.6807,137.32802 -104.0879,192.23463 -116.5298,197.43318 -1.5896,0.66419 -3.2051,1.15738 -3.5901,1.09598 -0.3848,-0.0614 -2.8225,-0.42115 -5.4171,-0.79945 z m 12.0679,-8.70779 c 15.2528,-15.82443 48.6218,-74.53325 118.6255,-208.70704 9.5624,-18.3278 32.4214,-60.10996 38.1579,-69.74555 7.3622,-12.36642 9.3293,-15.23487 10.4563,-15.24731 1.2905,-0.0142 20.6054,42.91638 51.3225,114.07316 33.1683,76.83526 32.2195,74.69779 42.1047,94.8465 10.2824,20.95848 18.698,34.23774 27.7104,43.72559 12.3187,12.96828 23.3453,15.78325 37.7548,9.63831 9.5454,-4.07067 11.6469,-6.71202 18.9751,-23.84931 3.3639,-7.86685 16.0859,-36.65045 28.2709,-63.96356 41.779,-93.64925 52.4775,-120.53482 72.8129,-182.98216 8.6211,-26.474 17.8559,-61.43742 25.1196,-95.10374 13.4738,-62.45002 20.3751,-106.86182 20.5385,-132.16991 0.081,-12.6442 -0.061,-13.82236 -2.4582,-20.33822 -4.5622,-12.39939 -9.3631,-16.8689 -19.4766,-18.13251 -4.1428,-0.51762 -5.6392,-0.29984 -8.7121,1.26791 -4.6338,2.36391 -13.364,10.99816 -14.8851,14.72143 -0.6283,1.53794 -1.414,7.42674 -1.7461,13.08622 -6.0105,102.44468 -38.598,234.38727 -84.4199,341.80527 -15.5185,36.37926 -46.1188,95.64009 -49.4223,95.71182 -2.746,0.0596 -12.5135,-17.5606 -25.5278,-46.05162 -4.2713,-9.35044 -22.374,-51.02474 -40.2283,-92.60956 -41.7711,-97.28954 -43.9295,-102.21775 -50.578,-115.48107 -6.7119,-13.39001 -10.893,-19.71111 -16.3884,-24.77662 -5.1882,-4.78238 -8.6271,-5.00566 -16.5005,-1.07132 -10.7821,5.38787 -11.8449,7.16583 -32.3935,54.18841 -28.3835,64.95154 -40.3934,88.26444 -82.4593,160.06503 -49.1516,83.89495 -52.2188,88.98364 -53.5113,88.78011 -3.3536,-0.52808 -20.0235,-62.30617 -39.5008,-146.38897 -29.6058,-127.80653 -47.6869,-201.80733 -53.1519,-217.53547 -8.5893,-24.71971 -25.8039,-52.15613 -34.0183,-54.21779 -5.9822,-1.50144 -15.6839,5.1481 -20.5553,14.08846 -5.1392,9.43177 -3.6074,19.40598 11.6592,75.92046 3.6559,13.53353 10.2576,41.71904 14.6706,62.63449 19.9927,94.75704 40.0432,177.70625 62.3986,258.14354 9.8288,35.36525 18.4204,56.64023 28.6051,70.83388 9.6814,13.49211 17.7773,18.75263 30.5963,19.88088 0.6577,0.0579 3.4274,-2.21 6.1548,-5.03974 z m 0.2551,3.80281 c 0.6126,-0.73819 0.9125,-1.34217 0.6665,-1.34217 -0.2461,0 -0.9487,0.60398 -1.5613,1.34217 -0.6127,0.73819 -0.9126,1.34217 -0.6665,1.34217 0.246,0 0.9486,-0.60398 1.5613,-1.34217 z m 313.3401,-29.69153 c -0.6459,-0.25847 -1.4177,-0.22669 -1.715,0.0706 -0.2973,0.29733 0.2312,0.50881 1.1744,0.46996 1.0424,-0.0429 1.2544,-0.25496 0.5406,-0.54059 z M 3012.474,233.01173 c -0.6459,-0.25841 -1.4177,-0.22665 -1.715,0.0707 -0.2974,0.29733 0.2312,0.50886 1.1744,0.47002 1.0424,-0.043 1.2544,-0.25501 0.5406,-0.54062 z m 576.6101,-32.25318 c -0.2973,-0.29733 -0.5089,0.23112 -0.47,1.1744 0.043,1.04232 0.255,1.25439 0.5406,0.54062 0.2585,-0.64594 0.2267,-1.41769 -0.071,-1.71502 z m 52.8681,-3.59772 c -0.2251,-0.86123 -0.4092,-0.15659 -0.4092,1.56586 0,1.72245 0.1841,2.42708 0.4092,1.56586 0.2251,-0.86122 0.2251,-2.2705 0,-3.13172 z m -51.9733,-10.71873 c -0.2974,-0.29734 -0.5089,0.23112 -0.4701,1.17439 0.043,1.04233 0.255,1.25439 0.5407,0.54063 0.2585,-0.64594 0.2267,-1.41769 -0.071,-1.71502 z m 42.4087,-17.58097 c 0,-0.18584 -0.7046,-0.89048 -1.5659,-1.56586 -1.4192,-1.11301 -1.4508,-1.08134 -0.3378,0.33787 1.1689,1.49043 1.9037,1.9644 1.9037,1.22799 z"
     id="path3085"
     inkscape:connector-curvature="0" />
</svg>
